<?xml version="1.0" encoding="utf-8"?>
<!-- Generator: Adobe Illustrator 24.0.0, SVG Export Plug-In . SVG Version: 6.00 Build 0)  -->
<svg version="1.1" id="Capa_1" xmlns="http://www.w3.org/2000/svg" xmlns:xlink="http://www.w3.org/1999/xlink" x="0px" y="0px"
	 viewBox="0 0 103.71 139.95" style="enable-background:new 0 0 103.71 139.95;" xml:space="preserve">
<style type="text/css">
	.st0{fill:none;stroke:#F6A2A7;stroke-width:5.884;stroke-linecap:round;stroke-linejoin:round;stroke-miterlimit:10;}
	.st1{fill:none;stroke:#F6A2A7;stroke-width:5.884;stroke-linejoin:round;stroke-miterlimit:10;}
</style>
<g id="icon_1_">
	<line id="XMLID_54_" class="st0" x1="65.16" y1="119.72" x2="5" y2="119.72"/>
	<line id="XMLID_53_" class="st0" x1="97.22" y1="119.72" x2="78.7" y2="119.72"/>
	<path id="XMLID_52_" class="st1" d="M52.19,70.56c-0.17,0.22-0.49,0.22-0.66,0c-1.43-1.93-7.49-8.87-16.64-2.56
		c-6.17,4.25-5.79,10.64-4.16,15.58c1.14,3.47,3.11,6.58,5.5,9.33c3.41,3.91,9.61,10.49,15.63,14.15
		c6.02-3.67,12.21-10.24,15.63-14.15c2.4-2.75,4.37-5.86,5.5-9.33c1.62-4.94,2-11.33-4.16-15.58
		C59.68,61.69,53.62,68.63,52.19,70.56z"/>
	<polyline id="XMLID_51_" class="st0" points="28.51,35.32 10.51,35.32 3.94,136.01 51.86,136.01 99.77,136.01 93.2,35.32 
		40.18,35.32 	"/>
	<path id="XMLID_47_" class="st0" d="M28.92,46.75V26.88c0-12.67,10.27-22.94,22.94-22.94h0c12.67,0,22.94,10.27,22.94,22.94v19.87"
		/>
	<line id="XMLID_46_" class="st0" x1="23.63" y1="47.48" x2="34.21" y2="47.48"/>
	<line id="XMLID_45_" class="st0" x1="69.51" y1="47.48" x2="80.09" y2="47.48"/>
</g>
<g>
</g>
<g>
</g>
<g>
</g>
<g>
</g>
<g>
</g>
<g>
</g>
<g>
</g>
<g>
</g>
<g>
</g>
<g>
</g>
<g>
</g>
<g>
</g>
<g>
</g>
<g>
</g>
<g>
</g>
</svg>
