<?xml version="1.0" encoding="utf-8"?>
<!-- Generator: Adobe Illustrator 24.0.0, SVG Export Plug-In . SVG Version: 6.00 Build 0)  -->
<svg version="1.1" id="Capa_1" xmlns="http://www.w3.org/2000/svg" xmlns:xlink="http://www.w3.org/1999/xlink" x="0px" y="0px"
	 viewBox="0 0 176.89 175.27" style="enable-background:new 0 0 176.89 175.27;" xml:space="preserve">
<style type="text/css">
	.st0{fill:#503428;}
	.st1{fill:#C0B297;}
	.st2{fill:#F6A2A7;}
</style>
<g>
	<path id="XMLID_81_" class="st0" d="M174.89,87.64c0,4.08-4.12,7.83-4.68,11.76c-0.57,4.03,2.32,8.78,1.2,12.6
		c-1.14,3.89-6.15,6.32-7.82,9.96c-1.68,3.68-0.25,9.05-2.42,12.42c-2.18,3.39-7.68,4.31-10.31,7.34
		c-2.64,3.04-2.77,8.61-5.81,11.25c-3.03,2.63-8.56,1.98-11.95,4.16c-3.37,2.17-5.06,7.48-8.74,9.16
		c-3.64,1.66-8.75-0.53-12.64,0.62c-3.82,1.12-6.95,5.73-10.97,6.31c-3.93,0.56-8.22-2.98-12.3-2.98c-4.08,0-8.37,3.54-12.3,2.98
		c-4.03-0.57-7.15-5.19-10.97-6.31c-3.89-1.14-9.01,1.05-12.64-0.62c-3.68-1.68-5.37-6.99-8.74-9.16
		c-3.39-2.18-8.92-1.53-11.95-4.16c-3.04-2.64-3.17-8.21-5.81-11.25c-2.63-3.03-8.13-3.95-10.31-7.34
		c-2.17-3.37-0.74-8.75-2.42-12.42c-1.66-3.64-6.68-6.07-7.82-9.96c-1.12-3.82,1.78-8.57,1.2-12.6C6.12,95.46,2,91.72,2,87.64
		c0-4.08,4.12-7.83,4.68-11.76c0.57-4.03-2.32-8.78-1.2-12.6c1.14-3.89,6.15-6.32,7.82-9.96c1.68-3.68,0.25-9.05,2.42-12.42
		c2.18-3.39,7.68-4.31,10.31-7.34c2.64-3.04,2.77-8.61,5.81-11.25c3.03-2.63,8.56-1.98,11.95-4.16c3.37-2.17,5.06-7.48,8.74-9.16
		c3.64-1.66,8.75,0.53,12.64-0.62c3.82-1.12,6.95-5.73,10.97-6.31c3.93-0.56,8.22,2.98,12.3,2.98c4.08,0,8.37-3.54,12.3-2.98
		c4.03,0.57,7.15,5.19,10.97,6.31c3.89,1.14,9.01-1.05,12.64,0.62c3.68,1.68,5.37,6.99,8.74,9.16c3.39,2.18,8.92,1.53,11.95,4.16
		c3.04,2.64,3.17,8.2,5.81,11.25c2.63,3.03,8.13,3.95,10.31,7.34c2.17,3.37,0.74,8.75,2.42,12.42c1.66,3.64,6.68,6.07,7.82,9.96
		c1.12,3.82-1.78,8.57-1.2,12.6C170.77,79.81,174.89,83.55,174.89,87.64z"/>
	<path class="st1" d="M88.44,11.46c-42.07,0-76.18,34.11-76.18,76.18c0,42.07,34.11,76.18,76.18,76.18
		c42.07,0,76.18-34.11,76.18-76.18C164.62,45.56,130.52,11.46,88.44,11.46z M88.44,161.9c-41.01,0-74.26-33.25-74.26-74.26
		s33.25-74.26,74.26-74.26c41.01,0,74.26,33.25,74.26,74.26S129.46,161.9,88.44,161.9z"/>
	<g>
		<path class="st1" d="M38.82,80.7c0.54-0.03,1.03,0.4,1.06,0.94c0.03,0.54-0.4,1.03-0.94,1.06c-2.54,0.2-4.75,0.63-6.89,1.23
			c0.23,3.4,0,8.69-0.09,11.9c-0.09,4.78-0.26,9.41-0.29,14.18c0,0.54-0.46,1-1,1c-0.54,0-1-0.46-1-1c0.03-3.97,0.14-7.92,0.23-11.9
			c0.09-4.06,0.31-9.44,0.17-13.55c-2.06,0.71-4.03,1.63-6.29,2.75c-0.49,0.26-1.09,0.06-1.34-0.43c-0.26-0.49-0.06-1.09,0.43-1.34
			c2.6-1.29,4.83-2.32,7.23-3.09c0.14-0.2,0.31-0.34,0.57-0.43c0.26-0.06,0.46-0.06,0.66,0.03C33.64,81.39,36.05,80.93,38.82,80.7z"
			/>
		<path class="st1" d="M41.91,101.09c0.03,0.54,0.14,1.09,0.34,1.63c0.77,2,3.2,1.54,4.55,0.11c0.69-0.77,0.97-1.26,1.54-2.14
			c0.31-0.46,0.92-0.63,1.37-0.31c0.46,0.31,0.63,0.92,0.31,1.4c-0.69,1-0.94,1.52-1.77,2.43c-2.4,2.55-6.55,2.66-7.86-0.74
			c-1.29-3.26,0.23-7.03,2.34-9.52c2.77-3.35,7.46-1.2,5.98,2.66c-1.14,2.86-4,3.72-6.61,4.49H41.91z M47,95.17
			c0-1.17-1.72-1.12-2.72,0.03c-0.89,1.06-1.66,2.37-2.09,3.77C44.05,98.43,46.91,97.37,47,95.17z"/>
		<path class="st1" d="M53.75,94.57c1.37-2.29,3.29-3.66,5.98-2.66c3.72,1.4,1.92,8.12,2.72,12.84c0.2,0.54-0.06,1.06-0.6,1.26
			c-0.54,0.2-1.09-0.06-1.29-0.6c-0.69-4.03,0.29-10.47-1.52-11.58c-2.74-1.83-4.6,3.86-5.26,5.63c0,1.92,0,3.72-0.09,5.43
			c-0.09,0.54-0.54,1-1.09,0.92c-0.54-0.03-0.94-0.51-0.91-1.06c0.11-4.12-0.17-8.41,0.03-12.41c-0.11-0.54,0.23-1.06,0.77-1.17
			c0.54-0.11,1.06,0.23,1.17,0.77L53.75,94.57z"/>
		<path class="st1" d="M65.33,89.74c0.09-0.54,0.11-2.43,0.2-2.8c0.14-0.54,0.69-0.86,1.23-0.71c0.54,0.14,0.86,0.69,0.71,1.23
			c0,0.17-0.14,1.83-0.14,2.06c0.6-0.09,1.23-0.03,1.94-0.14c0.54-0.09,1.06,0.29,1.14,0.83c0.09,0.54-0.29,1.06-0.83,1.14
			c-0.92,0.14-1.66,0.11-2.37,0.2c-0.23,4.63-0.77,14.01,1.63,12.52c0.57,0.09,0.97,0.57,0.89,1.12c-0.09,0.54-0.54,0.77-1.09,0.89
			c-4.43,0.92-3.83-8.75-3.49-14.3l-1.97,0.09c-0.57,0-1-0.46-1-1c0-0.54,0.43-1,1-1C63.98,89.82,64.67,89.82,65.33,89.74z"/>
		<path class="st1" d="M82.77,104.38c1.14,0.46,0.8,1.8-0.43,1.72c-1.46-0.26-2.14-1.6-2.34-3.23c-1.14,1.83-2.09,3.23-4.37,3
			c-7.86-0.74-1.74-18.04,5.15-12.67l0.11,0.14c0.49,0.09,0.89,0.46,0.89,1C81.77,96.97,81.37,103.8,82.77,104.38z M79.77,94.88
			c-0.2-0.09-0.29-0.14-0.43-0.26c-3.52-2.6-7.01,6.38-4.6,8.66c2.32,2.2,4.15-1.37,5.06-3.2C79.83,98.69,79.74,96.51,79.77,94.88z"
			/>
		<path class="st1" d="M92.92,93.37c0.43,0.37,0.43,0.97,0,1.4c-0.43,0.43-1,0.43-1.43,0c-3.52-2.6-7.01,6.38-4.6,8.66
			c2.2,2.14,4.52-1.2,5.58-2.77c0.31-0.46,0.92-0.63,1.37-0.31c0.49,0.31,0.63,0.92,0.31,1.37c-1.46,2.23-3.29,4.75-6.38,4.29
			C79.97,104.78,85.97,87.96,92.92,93.37z"/>
		<path class="st1" d="M98.36,89.68c-0.11,0.54-0.66,0.89-1.2,0.77c-1.52-0.46-1.77-1.46-0.86-2.69c0.34-0.43,0.97-0.49,1.4-0.14
			c0.31,0.26,0.43,0.66,0.31,1.09C98.33,88.96,98.44,89.28,98.36,89.68z M97.04,93.34c0.54,0,1,0.46,1,1c0,2.57-1,10.27,1.97,9.81
			c1.14,0.46,0.43,1.83-0.83,1.83c-4,0.11-3.15-7.75-3.15-11.64C96.04,93.8,96.5,93.34,97.04,93.34z"/>
		<path class="st1" d="M115.48,97.51c1.69,3.92-1.97,7.38-5.55,8.29c-9.26,2.29-9.09-11.18-2.12-12.78
			c3.43-0.77,6.15,1.12,7.61,4.17C115.46,97.34,115.48,97.46,115.48,97.51z M113.23,97.28c-3-5.09-9.81-1.63-8.21,4.63
			c1.03,4.46,10.32,1.26,8.61-3.66C113.31,97.94,113.31,97.71,113.23,97.28z"/>
		<path class="st1" d="M119.69,94.57c1.37-2.29,3.29-3.66,5.98-2.66c3.72,1.4,1.92,8.12,2.72,12.84c0.2,0.54-0.06,1.06-0.6,1.26
			c-0.54,0.2-1.09-0.06-1.29-0.6c-0.69-4.03,0.29-10.47-1.52-11.58c-2.75-1.83-4.6,3.86-5.26,5.63c0,1.92,0,3.72-0.09,5.43
			c-0.09,0.54-0.54,1-1.09,0.92c-0.54-0.03-0.94-0.51-0.92-1.06c0.11-4.12-0.17-8.41,0.03-12.41c-0.11-0.54,0.23-1.06,0.77-1.17
			c0.54-0.11,1.06,0.23,1.17,0.77L119.69,94.57z"/>
		<path class="st1" d="M131.58,101.09c0.03,0.54,0.14,1.09,0.34,1.63c0.77,2,3.2,1.54,4.55,0.11c0.69-0.77,0.97-1.26,1.54-2.14
			c0.31-0.46,0.92-0.63,1.37-0.31c0.46,0.31,0.63,0.92,0.31,1.4c-0.69,1-0.94,1.52-1.77,2.43c-2.4,2.55-6.55,2.66-7.86-0.74
			c-1.29-3.26,0.23-7.03,2.34-9.52c2.77-3.35,7.46-1.2,5.98,2.66c-1.14,2.86-4,3.72-6.61,4.49H131.58z M136.67,95.17
			c0-1.17-1.72-1.12-2.72,0.03c-0.89,1.06-1.66,2.37-2.09,3.77C133.73,98.43,136.59,97.37,136.67,95.17z"/>
		<path class="st1" d="M150.4,92.48c0.54,0.23,0.8,0.83,0.57,1.37c-0.23,0.54-0.86,0.77-1.4,0.54c-1.83-0.54-5.12-0.8-5.89,1.49
			c-1.23,3.49,6.66,0.4,7.92,5.18c0.86,3.46-3.35,6.18-7.23,4.49l-0.97-0.51c-0.49-0.31-0.63-0.94-0.31-1.43
			c0.31-0.49,1-0.63,1.49-0.31c1.46,0.77,3.2,1.26,4.43-0.2c2.57-3.03-3.83-3.12-4.92-3.49c-2.95-0.83-3.55-3.37-1.8-5.58
			C144.25,91.54,147.57,91.65,150.4,92.48z"/>
	</g>
	<g>
		<path class="st1" d="M70.53,112c0.17,0.17,0.19,0.46,0,0.63c-0.17,0.19-0.44,0.21-0.63,0.01c-2.23-1.92-3.86,0.72-4.69,2.69
			c-0.72,1.7-1.73,6.11-0.32,7.58c2.06,2.17,7.35-0.38,4.74-4.17c-1.18,0.29-2.31,0.59-3.49,0.91c-0.24,0.06-0.49-0.06-0.55-0.31
			c-0.06-0.24,0.06-0.49,0.31-0.55c1.78-0.5,3.44-0.94,5.24-1.29c0.24-0.05,0.49,0.12,0.53,0.36c0.05,0.24-0.12,0.47-0.36,0.53
			l-0.76,0.15c2.72,4.63-3.54,7.83-6.31,5c-1.36-1.44-1.01-4.22-0.63-6.01C64.24,114.47,66.84,108.77,70.53,112z"/>
		<path class="st1" d="M78.57,118.61c0.76,1.76-0.88,3.31-2.49,3.72c-4.15,1.03-4.08-5.01-0.95-5.73c1.54-0.35,2.76,0.5,3.41,1.87
			C78.56,118.53,78.57,118.58,78.57,118.61z M77.56,118.5c-1.35-2.28-4.4-0.73-3.68,2.08c0.46,2,4.63,0.56,3.86-1.64
			C77.6,118.8,77.6,118.7,77.56,118.5z"/>
		<path class="st1" d="M85.65,121.58c0.54,0.21,0.15,1.06-0.37,0.82c-0.51-0.24-1.03-1.12-1.03-2.1c-0.62,1.32-1.63,2.6-3.09,1.96
			c-1.77-0.78-1.15-4.13-1.15-5.74c0-0.24,0.19-0.45,0.45-0.45c0.24-0.01,0.45,0.18,0.45,0.44c0,1.08-0.42,4.15,0.46,4.83
			c1.33,1.03,2.37-2.12,2.64-2.86c0.01-0.01,0.01-0.03,0.01-0.04c-0.04-0.58-0.01-1.14-0.01-1.64c0-0.24,0.21-0.45,0.45-0.45
			c0.24,0,0.45,0.21,0.45,0.45C84.9,117.99,84.78,121.22,85.65,121.58z"/>
		<path class="st1" d="M87.53,122.03c-0.01,0.24-0.23,0.42-0.47,0.41c-0.24-0.04-0.45-0.23-0.41-0.49c0.05-1.83-0.06-3.76,0-5.55
			c-0.05-0.24,0.1-0.47,0.35-0.53c0.24-0.05,0.49,0.1,0.54,0.35c0.01,0.32,0.03,0.65,0.03,1c0.65-1.06,1.63-1.55,2.95-0.19
			c0.15,0.19,0.14,0.46-0.05,0.63c-0.19,0.17-0.46,0.15-0.63-0.04l-0.24-0.26c-1.22-1.26-2,1.72-2,2.18L87.53,122.03z"/>
		<path class="st1" d="M99.21,116.18c1.67,0.83,0.74,4.01,1.05,5.68c0.09,0.24-0.05,0.49-0.29,0.55c-0.24,0.09-0.47-0.04-0.56-0.28
			c-0.26-1.73,0.4-4.46-0.5-5.1c-1.28-0.82-2.13,1.87-2.38,2.6l-0.06,0.13c0,0.82-0.06,1.59-0.06,2.19c0,0.26-0.21,0.45-0.45,0.45
			c-0.26,0-0.45-0.19-0.45-0.45c0-1.09,0.32-4.2-0.65-4.87c-1.37-0.91-2.18,1.53-2.5,2.47c-0.01,0.86-0.01,1.67-0.05,2.44
			c-0.01,0.24-0.23,0.45-0.47,0.41c-0.24-0.04-0.45-0.23-0.41-0.49c0.05-1.83-0.06-3.76,0-5.55c-0.05-0.24,0.1-0.47,0.35-0.53
			c0.24-0.05,0.49,0.1,0.54,0.35l0.04,1.17c0.56-0.97,1.41-1.7,2.65-1.19c0.72,0.29,1.08,0.91,1.28,1.72
			C96.88,116.64,97.8,115.47,99.21,116.18z"/>
		<path class="st1" d="M102.57,120.21c0.01,0.24,0.06,0.49,0.15,0.73c0.35,0.9,1.44,0.69,2.04,0.05c0.31-0.35,0.44-0.56,0.69-0.96
			c0.14-0.21,0.41-0.28,0.62-0.14c0.21,0.14,0.28,0.41,0.14,0.63c-0.31,0.45-0.42,0.68-0.79,1.09c-1.08,1.14-2.94,1.19-3.53-0.33
			c-0.58-1.46,0.1-3.15,1.05-4.27c1.24-1.5,3.35-0.54,2.68,1.19c-0.51,1.28-1.79,1.67-2.96,2.01H102.57z M104.85,117.55
			c0-0.53-0.77-0.5-1.22,0.01c-0.4,0.47-0.74,1.06-0.94,1.69C103.53,119.02,104.81,118.54,104.85,117.55z"/>
		<path class="st1" d="M108.07,115.12c0.04-0.24,0.05-1.09,0.09-1.26c0.06-0.24,0.31-0.38,0.55-0.32c0.24,0.06,0.38,0.31,0.32,0.55
			c0,0.08-0.06,0.82-0.06,0.92c0.27-0.04,0.55-0.01,0.87-0.06c0.24-0.04,0.47,0.13,0.51,0.37c0.04,0.24-0.13,0.47-0.37,0.51
			c-0.41,0.06-0.74,0.05-1.06,0.09c-0.1,2.08-0.35,6.28,0.73,5.61c0.26,0.04,0.44,0.26,0.4,0.5c-0.04,0.24-0.24,0.35-0.49,0.4
			c-1.99,0.41-1.72-3.92-1.56-6.41l-0.88,0.04c-0.26,0-0.45-0.21-0.45-0.45s0.19-0.45,0.45-0.45
			C107.46,115.16,107.77,115.16,108.07,115.12z"/>
	</g>
	<g>
		<path class="st1" d="M58.65,140.66c0.43-0.66,0.97-1.23,1.89-1.08c2.6,0.42,1.17,5.3-0.98,5.2c-0.08,0.12-0.21,0.2-0.37,0.18
			c-1.71-0.3-1.36-6.01-1.18-7.26c0.05-0.21,0.26-0.33,0.47-0.27c0.21,0.05,0.33,0.26,0.27,0.47
			C58.69,138.3,58.65,139.46,58.65,140.66z M58.98,143.74c0.05,0.03,0.11,0.07,0.14,0.1c1.33,0.99,2.66-2.42,1.75-3.29
			c-0.94-0.86-1.7,0.71-2.06,1.32c-0.03,0.04-0.07,0.09-0.11,0.12C58.74,142.7,58.82,143.32,58.98,143.74z"/>
		<path class="st1" d="M63.85,149.06h-0.42c-0.22-0.01-0.37-0.2-0.36-0.4c0.03-0.22,0.2-0.37,0.41-0.36h0.31
			c1.82-0.12,2.39-2.68,2.51-5.06c-0.4,1.03-1.07,1.86-2.05,1.65c-1.93-0.35-1.38-3.54-1.33-4.97c-0.01-0.21,0.16-0.38,0.37-0.38
			c0.21-0.01,0.38,0.15,0.39,0.37c-0.04,0.92-0.4,3.74,0.52,4.18c1.4,0.61,1.91-2.92,2.04-3.89c-0.01-0.13-0.01-0.23-0.04-0.35
			c-0.03-0.21,0.11-0.4,0.31-0.43c0.21-0.03,0.4,0.11,0.43,0.31l0.03,0.26c0.02,0.05,0.03,0.12,0.03,0.17
			C67,140.17,67,140.18,67,140.2C67.26,142.94,67.22,148.84,63.85,149.06z"/>
		<path class="st1" d="M73.54,146.73c-0.05,0.21-0.25,0.33-0.46,0.27c-0.21-0.05-0.33-0.26-0.28-0.47c0.39-1.44,0.88-2.8,1.39-4.18
			c-0.55,0.14-1.13,0.3-1.74,0.47c-0.21,0.05-0.41-0.07-0.47-0.27c-0.05-0.21,0.05-0.39,0.26-0.47l2.27-0.6
			c0.77-2,1.55-3.95,2.16-6.04c0.05-0.21,0.26-0.31,0.47-0.26c0.07,0.01,0.12,0.04,0.16,0.1c0.15,0.01,0.25,0.1,0.3,0.26
			c0.52,1.7,0.92,3.4,1.3,5.12c0.46-0.05,0.93-0.1,1.43-0.13c0.21-0.03,0.39,0.14,0.4,0.35c0.03,0.21-0.14,0.39-0.35,0.4
			c-0.47,0.04-0.9,0.08-1.32,0.13c0.35,1.7,0.66,3.38,1.01,5.12c0.03,0.21-0.1,0.4-0.3,0.44c-0.21,0.04-0.4-0.09-0.44-0.29
			c-0.35-1.75-0.66-3.45-1.02-5.17c-1.13,0.16-2.15,0.37-3.23,0.63C74.5,143.65,73.96,145.15,73.54,146.73z M75.41,141.28
			c0.91-0.21,1.8-0.38,2.76-0.52c-0.3-1.4-0.64-2.8-1.04-4.2C76.61,138.18,76.01,139.71,75.41,141.28z"/>
		<path class="st1" d="M83.04,144.2h0.01c0.46,0.05,0.47,0.62-0.09,0.76c-1.79,0.47-1.36-5.99-1.18-7.26
			c0.05-0.21,0.26-0.33,0.47-0.27c0.21,0.05,0.33,0.26,0.27,0.47C82.39,138.84,82.13,144.24,83.04,144.2z"/>
		<path class="st1" d="M85.03,143.07c0.01,0.21,0.05,0.41,0.13,0.62c0.29,0.76,1.21,0.59,1.72,0.04c0.26-0.29,0.37-0.48,0.59-0.81
			c0.12-0.17,0.35-0.24,0.52-0.12c0.17,0.12,0.24,0.35,0.12,0.53c-0.26,0.38-0.36,0.57-0.67,0.92c-0.91,0.97-2.48,1.01-2.98-0.28
			c-0.49-1.24,0.09-2.67,0.89-3.61c1.05-1.27,2.83-0.46,2.27,1.01c-0.43,1.09-1.52,1.41-2.51,1.7H85.03z M86.96,140.82
			c0-0.44-0.65-0.42-1.03,0.01c-0.34,0.4-0.63,0.9-0.79,1.43C85.84,142.06,86.92,141.66,86.96,140.82z"/>
		<path class="st1" d="M98.56,144.87l4.04-9.51c0.03-0.07,0.06-0.11,0.11-0.14c0.07-0.14,0.17-0.21,0.34-0.21
			c0.22,0,0.38,0.16,0.38,0.38c-0.05,3.34-0.34,6.85-0.25,10.18c0,0.43,0,0.35,0.03,0.69c0.03,0.22-0.11,0.41-0.31,0.44
			c-0.21,0.03-0.4-0.11-0.43-0.31c-0.05-0.42-0.04-0.31-0.04-0.81c-0.08-2.73,0.09-5.53,0.21-8.31l-3.59,8.43l0.02,0.02
			c0.1,0.18,0.04,0.4-0.14,0.52c-0.09,0.05-0.18,0.08-0.28,0.04c-0.08,0.02-0.16,0.01-0.25-0.02c-0.21-0.09-0.28-0.29-0.19-0.5
			v-0.02l-4.21-7.32c-0.01,0.94-0.05,1.89-0.07,2.59c-0.03,1.81-0.1,3.57-0.11,5.38c0,0.21-0.17,0.38-0.38,0.38
			c-0.21,0-0.38-0.17-0.38-0.38c0.01-1.51,0.05-3,0.09-4.51c0.03-1.43,0.11-3.29,0.08-4.79l-0.39-0.68c-0.1-0.18-0.04-0.4,0.14-0.52
			c0.11-0.05,0.22-0.07,0.33-0.02c0.02-0.03,0.06-0.05,0.14-0.09c0.21-0.05,0.4,0.05,0.48,0.26c0.03,0.25,0.03,0.53,0.07,0.84
			L98.56,144.87z"/>
		<path class="st1" d="M105.05,143.07c0.01,0.21,0.05,0.41,0.13,0.62c0.29,0.76,1.21,0.59,1.72,0.04c0.26-0.29,0.37-0.48,0.59-0.81
			c0.12-0.17,0.35-0.24,0.52-0.12c0.17,0.12,0.24,0.35,0.12,0.53c-0.26,0.38-0.36,0.57-0.67,0.92c-0.91,0.97-2.48,1.01-2.98-0.28
			c-0.49-1.24,0.09-2.67,0.89-3.61c1.05-1.27,2.83-0.46,2.27,1.01c-0.43,1.09-1.52,1.41-2.51,1.7H105.05z M106.98,140.82
			c0-0.44-0.65-0.42-1.03,0.01c-0.34,0.4-0.63,0.9-0.79,1.43C105.86,142.06,106.95,141.66,106.98,140.82z"/>
		<path class="st1" d="M110.48,144.2h0.01c0.46,0.05,0.47,0.62-0.09,0.76c-1.79,0.47-1.36-5.99-1.18-7.26
			c0.05-0.21,0.26-0.33,0.47-0.27c0.21,0.05,0.33,0.26,0.27,0.47C109.83,138.84,109.57,144.24,110.48,144.2z"/>
		<path class="st1" d="M113.13,144.2h0.01c0.46,0.05,0.47,0.62-0.09,0.76c-1.79,0.47-1.36-5.99-1.18-7.26
			c0.05-0.21,0.26-0.33,0.47-0.27c0.21,0.05,0.33,0.26,0.27,0.47C112.48,138.84,112.22,144.24,113.13,144.2z"/>
		<path class="st1" d="M115.4,149.06h-0.42c-0.22-0.01-0.37-0.2-0.36-0.4c0.03-0.22,0.2-0.37,0.41-0.36h0.31
			c1.82-0.12,2.39-2.68,2.51-5.06c-0.4,1.03-1.07,1.86-2.05,1.65c-1.93-0.35-1.38-3.54-1.33-4.97c-0.01-0.21,0.16-0.38,0.37-0.38
			c0.21-0.01,0.38,0.15,0.39,0.37c-0.04,0.92-0.4,3.74,0.52,4.18c1.4,0.61,1.91-2.92,2.04-3.89c-0.01-0.13-0.01-0.23-0.04-0.35
			c-0.03-0.21,0.11-0.4,0.31-0.43c0.21-0.03,0.4,0.11,0.43,0.31l0.03,0.26c0.02,0.05,0.03,0.12,0.03,0.17
			c-0.01,0.01-0.01,0.02-0.01,0.03C118.8,142.94,118.76,148.84,115.4,149.06z"/>
	</g>
	<g>
		<path class="st1" d="M31.92,46.85l0.03-0.04c0.24-0.24,0.47-0.27,0.7-0.09c0.6,0.47,1.31,1.78,2.14,3.92
			c0.25,0.69,0.53,1.71,0.83,3.04c0.28,1.3,0.47,2,0.58,2.08c0.12,0.19,0.39,0.48,0.83,0.89c0.04,0.02,0.05,0.05,0.02,0.08
			l-0.01,0.01c-0.02-0.19-0.15-0.54-0.38-1.04c-0.12-0.6-0.06-1.06,0.19-1.38c0.33-0.41,0.97-0.46,1.94-0.15
			c0.58,0.15,0.98,0.16,1.22,0.03c0.08-0.04,0.15-0.1,0.21-0.17l0.09-0.11c0.22-0.28,0.3-0.74,0.22-1.38
			c-0.15-0.54-0.36-1.02-0.62-1.45c-0.37-0.48-0.48-0.81-0.33-1c0.17-0.18,0.34-0.2,0.52-0.06c0.49,0.58,0.88,1.37,1.17,2.37
			c0.15,0.79-0.01,1.48-0.49,2.07c-0.51,0.64-1.33,0.77-2.46,0.38c-0.53-0.1-0.82-0.11-0.87-0.05c-0.03,0.01-0.05,0.02-0.05,0.03
			l-0.01,0.02c-0.23,0.28,0.03,1.02,0.75,2.21l0.78,0.89c0.01,0.13-0.01,0.25-0.05,0.36c-0.19,0.24-0.51,0.2-0.97-0.12
			c-0.25-0.14-0.49-0.29-0.71-0.45c-1.11-0.88-1.85-1.71-2.21-2.49c-1.58-2.88-2.5-4.83-2.75-5.83c-0.25-0.81-0.4-1.41-0.44-1.8
			C31.73,47.26,31.79,47.01,31.92,46.85z M35.01,53.68c-0.05-0.03-0.09-0.02-0.13,0.02c0.05-0.06-0.08-0.55-0.37-1.47
			c-0.25-1.04-0.66-2.12-1.22-3.26c-0.27-0.54-0.54-0.99-0.82-1.37l-0.02-0.01c0.02,0,0.02,0.01,0.01,0.03
			c-0.02,0.03,0.08,0.44,0.31,1.24c0.45,1.45,0.74,2.23,0.87,2.33c0.56,1.14,1,1.95,1.3,2.44L35.01,53.68z"/>
		<path class="st1" d="M40,47.28l0.23-0.21c0.32-0.32,0.68-0.4,1.09-0.25c0.11,0.04,0.48,0.27,1.13,0.7
			c0.68,0.27,1.27,0.15,1.78-0.36c0.49-0.49,0.75-1.31,0.77-2.47c0.09-0.14,0.16-0.24,0.21-0.29c0.19-0.07,0.33-0.05,0.42,0.04
			c0.14,0.14,0.17,0.43,0.09,0.88c-0.04,0.65-0.27,1.33-0.68,2.01c-0.11,0.13-0.19,0.23-0.26,0.29l-0.06,0.06
			c-0.72,0.72-1.57,0.92-2.55,0.58l-0.05,0.01c0.01-0.01,0.08,0.24,0.23,0.75c0.14,0.96-0.03,1.67-0.51,2.16l-0.02,0.02
			c-0.37,0.37-0.85,0.44-1.45,0.22c-0.15-0.08-0.28-0.16-0.37-0.26c-0.46-0.49-0.7-1.2-0.73-2.12C39.29,48.36,39.53,47.77,40,47.28z
			 M40.44,50.57c0.27,0.27,0.56,0.33,0.87,0.16l0.08-0.08c0.38-0.38,0.36-1.19-0.07-2.41c-0.16-0.39-0.29-0.63-0.39-0.73l-0.1-0.1
			c0.01,0.01-0.07,0.1-0.25,0.26c-0.58,0.56-0.74,1.28-0.49,2.18C40.16,50.16,40.27,50.4,40.44,50.57z"/>
		<path class="st1" d="M52.48,38.73l0.1-0.08c0.19-0.02,0.32,0.02,0.4,0.13l0.02,0.03c0.29,0.68,0.39,1.61,0.31,2.81
			c-0.12,0.85-0.31,1.42-0.56,1.69c-0.32,0.48-0.62,0.82-0.88,1.02c-0.76,0.58-1.56,0.61-2.39,0.08c-0.9-0.62-1.4-0.95-1.51-0.99
			c-0.1-0.02-0.19,0-0.26,0.04l-0.09,0.07c-0.27,0.21-0.4,0.61-0.4,1.22c-0.02,0.33,0,1.32,0.06,2.95c-0.03,0.2-0.08,0.33-0.16,0.39
			l-0.04,0.03c-0.16,0.12-0.34,0.09-0.54-0.09c-0.61-1.34-1.06-2.47-1.36-3.4c0-0.22,0.05-0.37,0.17-0.45
			c0.16-0.04,0.29-0.04,0.39,0.02l0.11,0.15c0.12,0.37,0.33,0.88,0.64,1.55l0.09,0.12c-0.04-0.04-0.08-0.04-0.13-0.01l-0.02,0.02
			c0.03-0.12,0.04-0.59,0.04-1.43c0.03-0.74,0.26-1.27,0.68-1.6l0.07-0.06c0.48-0.37,1.02-0.33,1.61,0.11
			c1,0.72,1.59,1.05,1.75,0.97c0.3,0.03,0.59-0.06,0.88-0.28l0.02-0.01c0.57-0.44,0.92-1.16,1.05-2.15c0.05-1.04-0.02-1.78-0.22-2.2
			C52.29,39.05,52.33,38.83,52.48,38.73z"/>
		<path class="st1" d="M54.6,29.31c0.41-0.22,0.72-0.12,0.95,0.3c0.01-0.01,0.05,0.05,0.11,0.16c0.32,0.72,0.53,1.24,0.65,1.56
			c-0.04-0.08-0.06-0.12-0.04-0.13c0.36,0.67,0.75,2.36,1.17,5.06c0.01,0.75,0.04,1.17,0.09,1.26l0.02,0.04
			c0.52,0.45,1.2,0.46,2.06,0.02l0.18-0.1c1.34-0.71,2.27-1.94,2.79-3.68c0.01-0.39,0.09-0.63,0.24-0.71l0.02-0.01
			c0.14-0.08,0.31-0.04,0.49,0.12c0.1,0.42-0.16,1.3-0.81,2.64c-0.82,1.06-1.52,1.74-2.11,2.05c-0.06,0.03-0.24,0.14-0.52,0.33
			c-0.27,0.14-0.76,0.27-1.48,0.38c-0.2,0-0.51-0.07-0.94-0.21c0.07-0.01,0.08,0.08,0.04,0.24c-0.13,0.89-0.54,1.65-1.24,2.28
			c-0.15,0.19-0.36,0.34-0.63,0.47c-0.95,0.53-1.84,0.41-2.68-0.35c-0.05-0.06-0.1-0.12-0.13-0.18l-0.12-0.22
			c-0.31-0.62-0.32-1.44-0.02-2.46c0.24-0.59,0.72-1.13,1.43-1.62l0.53-0.25c0.25-0.06,0.62-0.14,1.1-0.25
			c-0.18,0.45-0.32,0.52-0.42,0.19c-0.01-0.01-0.05-0.09-0.14-0.22c-0.51-1.01-0.84-2.15-1-3.41l-0.07-1.66
			c-0.02-0.6,0.05-1.08,0.21-1.44C54.45,29.41,54.53,29.34,54.6,29.31z M53.4,40.26c0.31,0.57,0.82,0.81,1.55,0.71
			c0.15-0.05,0.26-0.09,0.33-0.13c0.77-0.47,1.26-1.28,1.48-2.4c0-0.26-0.02-0.42-0.05-0.48c-0.31-0.29-0.65-0.69-1.02-1.18
			c0,0-0.14,0.05-0.41,0.15c-0.18-0.02-0.36,0.02-0.55,0.12c-1.06,0.56-1.55,1.5-1.47,2.8C53.31,40.05,53.36,40.18,53.4,40.26z
			 M55.56,34.9c-0.04-0.08-0.05-0.12-0.04-0.13c0.07,0.12,0.22,0.46,0.46,1.01c0.46,0.7,0.7,1.05,0.71,1.05
			c0.03-0.01,0.02-0.13-0.02-0.34c-0.01-0.69-0.3-2.21-0.89-4.58l-0.82-1.78c-0.04-0.04-0.04-0.06-0.01-0.08
			c-0.1,0.1-0.1,0.84-0.01,2.24C55.04,33.23,55.25,34.1,55.56,34.9z"/>
		<path class="st1" d="M68.69,30.67c0.21,0,0.33,0.05,0.35,0.16l0.02,0.07c0.02,0.07-0.06,0.42-0.21,1.05
			c-0.07,0.46-0.1,0.73-0.09,0.79l-0.02-0.07c-0.06,0.01,0.03-0.16,0.28-0.51c0.29-0.31,0.54-0.49,0.74-0.53l0.22-0.05
			c0.49-0.12,0.9,0.13,1.23,0.74c-0.01-0.01-0.03-0.01-0.06,0l-0.02,0.01c0.03-0.03,0.11-0.22,0.23-0.57
			c0.28-0.38,0.59-0.61,0.92-0.68c0.46-0.11,0.89,0.07,1.31,0.52c0.2,0.22,0.42,0.4,0.67,0.53c0.56,0.23,0.95,0.31,1.17,0.26
			l0.07-0.02c0.62-0.15,1.15-0.56,1.58-1.25c0.4-0.52,0.65-0.98,0.75-1.38c0.14-0.54,0.32-0.83,0.53-0.88l0.02-0.01
			c0.16-0.04,0.3,0.04,0.42,0.24c-0.06,0.5-0.32,1.17-0.78,1.99c-0.73,1.11-1.42,1.74-2.09,1.9l-0.31,0.07
			c-0.64,0.15-1.4-0.05-2.26-0.61c-0.5-0.49-0.8-0.72-0.92-0.7l-0.04,0.01c-0.31,0.07-0.52,0.52-0.61,1.34
			c-0.12,0.64-0.23,0.97-0.34,1l-0.11,0.05c-0.29,0.07-0.54-0.28-0.76-1.04c-0.21-0.57-0.39-0.83-0.54-0.8
			c-0.01-0.03-0.02-0.04-0.03-0.04l-0.02,0.01c-0.35,0.08-0.86,0.97-1.53,2.66c-0.15,0.26-0.28,0.4-0.39,0.43l-0.03,0.01
			c-0.24,0.03-0.39-0.08-0.44-0.3c0.12-1.21,0.33-2.44,0.63-3.7C68.33,30.95,68.48,30.72,68.69,30.67z"/>
		<path class="st1" d="M80.71,26.99l0.31-0.02c0.45-0.04,0.78,0.14,0.99,0.51c0.05,0.1,0.19,0.52,0.41,1.26
			c0.34,0.64,0.87,0.93,1.59,0.87c0.69-0.06,1.42-0.53,2.18-1.4c0.16-0.05,0.27-0.08,0.35-0.09c0.19,0.07,0.29,0.17,0.3,0.3
			c0.02,0.19-0.15,0.44-0.49,0.73c-0.45,0.47-1.06,0.84-1.81,1.11c-0.17,0.03-0.3,0.05-0.39,0.06l-0.09,0.01
			c-1.02,0.09-1.8-0.31-2.33-1.2l-0.05-0.02c0.01,0-0.09,0.24-0.31,0.72c-0.51,0.82-1.1,1.26-1.78,1.32l-0.02,0
			c-0.52,0.05-0.94-0.21-1.26-0.76c-0.07-0.16-0.11-0.3-0.12-0.43c-0.03-0.67,0.23-1.36,0.81-2.09
			C79.47,27.36,80.04,27.06,80.71,26.99z M78.93,29.79c0.03,0.38,0.22,0.61,0.56,0.68l0.11-0.01c0.54-0.05,1.04-0.68,1.5-1.88
			c0.13-0.4,0.18-0.67,0.17-0.81l-0.01-0.14c0,0.02-0.12,0.03-0.35,0.04c-0.8,0.05-1.39,0.51-1.77,1.36
			C78.98,29.3,78.91,29.55,78.93,29.79z"/>
		<path class="st1" d="M93.22,21.17c0.46,0.03,0.68,0.28,0.65,0.75c0.02,0,0.02,0.07,0.01,0.2c-0.11,0.78-0.2,1.34-0.27,1.66
			c0.01-0.09,0.02-0.13,0.03-0.13c-0.05,0.76-0.6,2.4-1.66,4.92c-0.39,0.64-0.58,1.01-0.59,1.12l0,0.04c0.2,0.66,0.78,1.02,1.74,1.1
			l0.21,0.01c1.51,0.1,2.95-0.45,4.31-1.66c0.21-0.33,0.41-0.49,0.58-0.48l0.02,0c0.16,0.01,0.28,0.13,0.36,0.36
			c-0.13,0.42-0.83,1.02-2.08,1.82c-1.25,0.47-2.21,0.68-2.87,0.63c-0.07,0-0.28,0-0.61,0.01c-0.31-0.02-0.79-0.17-1.46-0.45
			c-0.17-0.1-0.4-0.33-0.69-0.68c0.06,0.03,0.03,0.11-0.09,0.23c-0.58,0.69-1.33,1.12-2.25,1.29c-0.22,0.08-0.49,0.1-0.79,0.07
			c-1.09-0.05-1.79-0.62-2.09-1.71c-0.01-0.08-0.02-0.15-0.01-0.22l0.02-0.25c0.06-0.69,0.49-1.39,1.28-2.1
			c0.51-0.37,1.2-0.58,2.07-0.62l0.58,0.07c0.24,0.08,0.6,0.2,1.07,0.36c-0.39,0.29-0.54,0.27-0.46-0.06c0-0.02,0-0.1-0.01-0.26
			c0.1-1.13,0.42-2.27,0.95-3.42l0.81-1.45c0.3-0.52,0.61-0.89,0.93-1.11C93.04,21.18,93.14,21.16,93.22,21.17z M86.44,29.85
			c-0.04,0.65,0.27,1.12,0.95,1.42c0.16,0.04,0.27,0.06,0.35,0.06c0.9,0,1.74-0.42,2.52-1.27c0.13-0.22,0.2-0.37,0.21-0.43
			c-0.11-0.41-0.19-0.93-0.24-1.54c0,0-0.14-0.03-0.43-0.09c-0.14-0.11-0.32-0.18-0.53-0.19c-1.19-0.08-2.1,0.46-2.72,1.61
			C86.47,29.62,86.44,29.76,86.44,29.85z M91.09,26.42c0.01-0.09,0.02-0.13,0.03-0.13c-0.01,0.14-0.06,0.51-0.14,1.1
			c0.03,0.84,0.04,1.26,0.05,1.26c0.03,0,0.08-0.1,0.16-0.29c0.36-0.59,0.91-2.04,1.65-4.36l0.24-1.95c-0.01-0.05,0-0.07,0.03-0.07
			c-0.14,0.03-0.53,0.66-1.19,1.9C91.53,24.74,91.25,25.59,91.09,26.42z"/>
		<path class="st1" d="M101.23,27.64l0.1,0.02c0.53,0.19,0.76,0.46,0.69,0.8c-0.19,0.46-0.72,0.86-1.62,1.2
			c-0.2,0.05-0.82,0.13-1.86,0.21c-0.03,0.01-0.04,0.02-0.04,0.04l0,0.02c0.05,0.55,0.21,0.96,0.51,1.22
			c0.3,0.26,0.67,0.43,1.13,0.53l0.2,0.04c1.48,0.32,2.98-0.02,4.51-1.01c0.26-0.3,0.47-0.43,0.65-0.39l0.02,0
			c0.16,0.03,0.26,0.17,0.3,0.41c-0.19,0.39-0.97,0.89-2.32,1.49c-1.31,0.28-2.28,0.35-2.93,0.21c-0.07-0.02-0.27-0.04-0.61-0.08
			c-0.33-0.07-0.8-0.3-1.43-0.7c-0.34-0.41-0.58-0.83-0.72-1.26c-0.08-0.02-0.1-0.28-0.06-0.78c0.06-0.27,0.37-0.69,0.94-1.24
			c0.77-0.47,1.36-0.7,1.76-0.7C100.73,27.61,101,27.59,101.23,27.64z M98.89,29.17c0-0.01-0.02-0.02-0.07-0.03l0.02,0
			c0.22,0.05,0.65,0,1.29-0.15c0.66-0.3,1-0.52,1.03-0.66c0.01-0.03-0.01-0.04-0.05-0.05l-0.05-0.01c-0.78,0.02-1.4,0.23-1.86,0.6
			C99,29.03,98.9,29.12,98.89,29.17z"/>
		<path class="st1" d="M119.14,27.24c0.29,0.15,0.33,0.46,0.12,0.91l-0.02,0.02c-0.21,0.39-1.12,1.14-2.73,2.24
			c-0.95,0.65-2.18,1.32-3.67,2.03c-0.61,0.3-1.21,0.56-1.8,0.78c-0.07,0.04-0.14,0.12-0.19,0.22c-0.31,0.57-0.32,1.22-0.05,1.95
			c0.12,0.22,0.27,0.38,0.47,0.48c0.46,0.25,1-0.03,1.61-0.83l0.13-0.25c0.18-0.32,0.29-0.78,0.33-1.37
			c0.15-0.14,0.27-0.19,0.38-0.15l0.13,0.07c0.09,0.05,0.25,0.23,0.48,0.53c0.16,0.18,0.35,0.32,0.55,0.44
			c0.1,0.05,0.65,0.19,1.67,0.4l0.25,0.14c0.1,0.13,0.11,0.26,0.05,0.39c-0.1,0.19-0.49,0.19-1.16,0.01
			c-0.41-0.05-0.81-0.17-1.2-0.38c-0.24-0.15-0.41-0.25-0.51-0.31l-0.02,0.03l-0.02,0.03c-0.1,0.28-0.17,0.46-0.22,0.55l-0.06,0.1
			c-0.3,0.56-0.81,0.99-1.53,1.31c-0.39,0.12-0.8,0.07-1.23-0.16c-0.83-0.45-1.16-1.31-0.99-2.6c0.1-0.39,0.24-0.76,0.43-1.12
			l0.05-0.1c0.43-0.8,1.61-1.96,3.54-3.48c0.69-0.53,1.77-1.08,3.25-1.65C118.11,27.11,118.75,27.03,119.14,27.24z M111.51,32.36
			c0,0-0.04-0.01-0.13-0.05c0.13,0.01,0.41-0.1,0.84-0.34c1.73-0.82,3.13-1.6,4.2-2.33c1.31-0.93,2.02-1.51,2.15-1.75
			c0.03-0.08,0.05-0.11,0.08-0.09l-0.06-0.03c-0.13-0.06-0.82,0.17-2.08,0.7c-0.96,0.38-1.92,0.98-2.87,1.8
			c-0.7,0.57-1.4,1.25-2.11,2.03L111.51,32.36z"/>
		<path class="st1" d="M119.59,34.41l0.26,0.16c0.39,0.23,0.57,0.55,0.53,0.99c-0.01,0.11-0.14,0.54-0.38,1.28
			c-0.08,0.72,0.19,1.26,0.82,1.62c0.6,0.34,1.46,0.37,2.59,0.09c0.16,0.05,0.27,0.09,0.34,0.13c0.11,0.16,0.14,0.3,0.07,0.42
			c-0.1,0.17-0.37,0.28-0.82,0.32c-0.64,0.13-1.35,0.09-2.12-0.12c-0.15-0.07-0.27-0.13-0.35-0.17l-0.08-0.05
			c-0.89-0.51-1.3-1.28-1.24-2.31l-0.03-0.05c0.01,0.01-0.21,0.15-0.66,0.42c-0.88,0.39-1.62,0.42-2.21,0.08l-0.02-0.01
			c-0.45-0.26-0.65-0.7-0.6-1.34c0.03-0.17,0.08-0.31,0.15-0.42c0.35-0.57,0.97-0.99,1.85-1.26C118.36,34.01,119,34.09,119.59,34.41
			z M116.54,35.71c-0.19,0.34-0.17,0.63,0.07,0.88l0.1,0.06c0.47,0.27,1.24,0.03,2.3-0.7c0.33-0.26,0.53-0.45,0.6-0.57l0.07-0.12
			c-0.01,0.01-0.11-0.04-0.31-0.17c-0.69-0.41-1.43-0.37-2.23,0.11C116.85,35.33,116.65,35.5,116.54,35.71z"/>
		<path class="st1" d="M133.07,33.82c0.25,0.27,0.26,0.55,0.03,0.86l-0.04,0.06c-0.25,0.34-0.83,0.78-1.74,1.34
			c-1.71,1.07-3.1,1.77-4.15,2.11c-0.7,0.24-1.63,0.52-2.77,0.83c-0.17,0.09-0.68,0.59-1.54,1.51c0,0.01-0.03-0.01-0.09-0.05
			c0.11,0,0.6-0.18,1.46-0.52c1.25-0.29,1.99-0.36,2.21-0.19l0.04,0.03c0.16,0.12,0.18,0.29,0.06,0.5c-0.09,0.12-0.6,0.24-1.55,0.37
			c-0.63,0.19-1,0.35-1.1,0.49c-0.19,0.29-0.23,0.9-0.14,1.83c0.1,0.41,0.38,0.78,0.84,1.12c1.19,0.89,2.68,0.88,4.47-0.03
			c0.65-0.4,1.03-0.57,1.12-0.5l0.12,0.06c0.15,0.2,0.18,0.38,0.07,0.52l-0.05,0.07c-0.21,0.09-0.52,0.27-0.92,0.52
			c-0.3,0.19-0.78,0.36-1.43,0.51c-0.69,0.34-1.54,0.35-2.53,0.04c-0.47-0.16-0.89-0.37-1.24-0.64l-0.2-0.15
			c-0.93-0.7-1.28-1.74-1.03-3.13c-0.01-0.04,0-0.05,0.02-0.03c-0.39,0.1-0.69,0.26-0.89,0.48c-0.4,0.32-0.72,0.56-0.96,0.72
			c-0.15,0.02-0.28-0.02-0.4-0.1c-0.18-0.13-0.19-0.32-0.04-0.57l0.13-0.17c0.04-0.05,0.07-0.08,0.1-0.09
			c-0.06,0.09-0.11,0.12-0.13,0.1l0.23-0.22l0.25-0.33c0.21-0.17,0.35-0.32,0.43-0.43l0.04-0.06c0.11-0.15,0.24-0.33,0.38-0.54
			c0.08-0.11,0.29-0.3,0.63-0.57c0.22-0.24,0.4-0.46,0.55-0.66l0.02,0.01c-0.11,0.14-0.16,0.21-0.18,0.2c0.3-0.4,0.73-0.81,1.3-1.23
			c0.69-0.57,1.28-1.01,1.76-1.32c0.88-0.67,1.73-1.23,2.58-1.67c0.6-0.33,1.49-0.67,2.66-1.04
			C132.24,33.61,132.78,33.6,133.07,33.82z M125.64,37.94c0.01,0,0.28-0.08,0.81-0.25c0.02-0.02,0.61-0.25,1.78-0.7
			c2.3-1.17,3.64-2.02,4.04-2.55c0.02-0.02,0.03-0.05,0.05-0.1c0,0-0.26,0.1-0.76,0.3c-1.29,0.38-2.15,0.72-2.56,1.02
			c-0.88,0.47-1.98,1.21-3.3,2.23L125.57,38C125.56,38.03,125.59,38.01,125.64,37.94z"/>
		<path class="st1" d="M133.49,44.08l0.07,0.07c0.35,0.44,0.41,0.79,0.17,1.04c-0.4,0.3-1.07,0.35-2.01,0.18
			c-0.2-0.06-0.77-0.32-1.7-0.79c-0.03,0-0.05,0-0.06,0.01l-0.02,0.02c-0.25,0.49-0.32,0.93-0.21,1.31
			c0.12,0.37,0.35,0.72,0.68,1.04l0.15,0.14c1.09,1.04,2.55,1.54,4.37,1.5c0.38-0.12,0.63-0.11,0.75,0.01l0.02,0.02
			c0.12,0.11,0.13,0.28,0.04,0.51c-0.37,0.23-1.29,0.25-2.76,0.06c-1.26-0.45-2.13-0.9-2.61-1.36c-0.05-0.05-0.21-0.18-0.48-0.39
			c-0.24-0.23-0.52-0.68-0.85-1.34c-0.07-0.53-0.06-1.01,0.04-1.46c-0.06-0.06,0.06-0.29,0.36-0.7c0.19-0.2,0.67-0.39,1.45-0.57
			c0.9,0.01,1.53,0.11,1.87,0.33C133.08,43.79,133.32,43.92,133.49,44.08z M130.7,44.16c0.01-0.01-0.01-0.03-0.05-0.06l0.02,0.02
			c0.16,0.15,0.55,0.34,1.18,0.55c0.72,0.09,1.13,0.08,1.22-0.02c0.02-0.02,0.01-0.04-0.02-0.07l-0.04-0.04
			c-0.67-0.38-1.31-0.54-1.9-0.46C130.87,44.1,130.73,44.13,130.7,44.16z"/>
		<path class="st1" d="M138.64,49.96c0.12,0.2,0.09,0.36-0.07,0.5c-0.16,0.05-0.54,0.1-1.14,0.16c-1.22,0.36-2.04,0.73-2.48,1.1
			c-0.48,0.45-0.66,0.87-0.56,1.25c0.01,0.07,0.03,0.12,0.06,0.16l0.06,0.07c0.25,0.29,0.76,0.52,1.54,0.67
			c0.64,0.06,1.54,0,2.7-0.16c0.55-0.16,0.9-0.15,1.06,0.04c0.1,0.22,0.09,0.39-0.05,0.51l-0.05,0.04c-0.21,0.09-0.94,0.2-2.2,0.33
			c-0.69,0.11-1.53,0.03-2.51-0.25c-0.32-0.12-0.67-0.36-1.06-0.72l-0.02-0.03c-0.37-0.44-0.41-1.04-0.09-1.8
			c0.09-0.19,0.28-0.41,0.58-0.66c0.55-0.47,1.27-0.83,2.14-1.07l0.46-0.19l0.09-0.07c-0.05,0.04-0.05,0.09-0.01,0.14l-0.03-0.04
			c-0.11-0.13-0.4-0.31-0.87-0.55c-0.19-0.11-0.47-0.19-0.85-0.25c-0.16-0.25-0.18-0.47-0.03-0.66l0.4-0.06
			c0.12,0,0.35,0.09,0.69,0.27c0.45,0.28,1.16,0.65,2.13,1.09L138.64,49.96z"/>
		<path class="st1" d="M140.2,53.76c0.09,0.12,0.08,0.26-0.02,0.41c-0.08,0.06-0.7,0.28-1.84,0.66c0.08-0.05,0.12-0.07,0.14-0.05
			c-0.28,0.16-0.44,0.25-0.47,0.26c-0.24,0.17-0.34,0.34-0.3,0.52c0.02,0.03,0.04,0.06,0.03,0.08c0.18,0.17,0.78,0.23,1.8,0.19
			c0.43-0.05,0.7,0,0.8,0.15l0.03,0.05c0.1,0.2,0.07,0.36-0.09,0.48l-0.03,0.02c-0.73,0.34-1.21,0.59-1.46,0.76l-0.32,0.22
			c-0.08,0.05-0.13,0.1-0.14,0.14l-0.04-0.06c0.03,0.04,0.38,0.09,1.05,0.15c1.81,0.17,3.01,0.4,3.62,0.68
			c0.08,0.08,0.14,0.15,0.18,0.21c0.07,0.18,0.05,0.31-0.07,0.4c-0.14,0.09-0.39,0.06-0.77-0.1c-0.67-0.2-1.52-0.35-2.54-0.44
			c-1.46-0.17-2.3-0.18-2.51-0.03c-0.32,0.22-0.85,0.64-1.59,1.24c-0.56,0.39-1.53,0.91-2.91,1.57c-0.86,0.3-1.58,0.49-2.18,0.55
			c-0.59,0.02-1.07-0.07-1.45-0.27c-0.29-0.16-0.5-0.33-0.62-0.51l-0.08-0.11c-0.39-0.56-0.17-1.11,0.64-1.68
			c0.32-0.2,0.54-0.32,0.69-0.37c-0.08,0.05-0.12,0.07-0.14,0.05c0.61-0.35,1.77-0.68,3.49-1c1.26-0.18,2.53-0.28,3.81-0.33
			l0.26-0.11c0.57-0.43,0.94-0.71,1.09-0.82c0.02-0.01,0.09-0.05,0.21-0.12c0.06-0.04,0.08-0.05,0.08-0.04
			c-0.01-0.01-0.3-0.07-0.87-0.19c-0.25-0.12-0.45-0.28-0.6-0.5c-0.25-0.36-0.16-0.78,0.28-1.26l0.24-0.17
			c0.4-0.27,1.17-0.54,2.32-0.8C140.03,53.64,140.12,53.69,140.2,53.76z M129.51,59.9c-0.42,0.34-0.58,0.57-0.49,0.7l0.07,0.09
			c0.47,0.68,1.79,0.56,3.96-0.38c-0.07,0.05-0.12,0.06-0.13,0.04l1.12-0.55c-0.07,0.05-0.12,0.06-0.13,0.04
			c0.61-0.31,1.04-0.55,1.29-0.73c0.66-0.46,0.99-0.7,0.97-0.72c-0.01-0.02-0.21,0-0.61,0.04c-1.36,0.08-2.69,0.28-4,0.6
			C130.7,59.25,130.03,59.54,129.51,59.9z"/>
	</g>
	<g>
		<g>
			<g>
				<path class="st2" d="M89.59,51.75c-0.46,0.3-0.86,1.07-1.18,1.52c-0.06-0.13-0.13-0.62-0.19-0.75c-0.2-0.38-0.43-0.89-0.84-1.09
					c-0.9-0.44-1.54,0.57-1.49,1.35c0.07,0.96,0.38,1.96,0.7,2.86c0.33,0.93,0.73,2.02,1.43,2.73c0.24,0.25,0.59,0.08,0.7-0.18
					c0.03-0.03,0.05-0.06,0.07-0.1c0.25-0.42,0.58-0.78,0.83-1.21c0.24-0.42,0.46-0.86,0.65-1.3c0.37-0.88,0.63-1.8,0.65-2.76
					C90.95,52.06,90.41,51.21,89.59,51.75z"/>
			</g>
		</g>
		<g>
			<g>
				<path class="st2" d="M83.7,48.09c-0.28,0.18-0.52,0.65-0.72,0.93c-0.04-0.08-0.08-0.38-0.12-0.46
					c-0.12-0.23-0.26-0.54-0.51-0.66c-0.55-0.27-0.94,0.35-0.91,0.83c0.04,0.59,0.23,1.19,0.43,1.74c0.2,0.57,0.45,1.23,0.87,1.67
					c0.15,0.15,0.36,0.05,0.43-0.11c0.02-0.02,0.03-0.04,0.04-0.06c0.15-0.26,0.35-0.48,0.5-0.74c0.15-0.26,0.28-0.52,0.4-0.79
					c0.23-0.53,0.38-1.1,0.4-1.68C84.53,48.28,84.21,47.76,83.7,48.09z"/>
			</g>
		</g>
		<g>
			<g>
				<path class="st2" d="M87.92,42.29c-0.28,0.26-0.47,0.84-0.64,1.19c-0.06-0.08-0.16-0.42-0.22-0.49
					c-0.19-0.24-0.4-0.57-0.71-0.66c-0.68-0.2-1,0.58-0.87,1.11c0.16,0.66,0.49,1.31,0.82,1.9c0.34,0.61,0.75,1.31,1.32,1.73
					c0.2,0.14,0.42-0.01,0.47-0.21c0.02-0.02,0.03-0.05,0.04-0.08c0.12-0.32,0.31-0.61,0.43-0.94c0.12-0.32,0.22-0.65,0.3-0.98
					c0.15-0.65,0.22-1.33,0.12-1.99C88.89,42.34,88.42,41.81,87.92,42.29z"/>
			</g>
		</g>
		<path class="st1" d="M94.4,67.47c-0.41,1.89-0.93,3.71-1.78,5.19c-1.75,3.03-5.09,4.38-7.46,3.01c-2.23-1.29-2.81-4.52-1.41-7.42
			c0.1,0,0.2,0.01,0.3,0.01c-1.17,2.35-1,4.94,0.35,6.44c-0.17-0.47-0.23-1.06-0.17-1.75c0.11-1.31,0.64-2.83,1.47-4.28
			c0.07-0.13,0.15-0.26,0.23-0.39c0.11,0,0.22,0,0.33,0c-0.11,0.18-0.22,0.35-0.32,0.53c-0.82,1.42-1.33,2.89-1.44,4.16
			c-0.08,0.91,0.05,1.62,0.38,2.08c-0.05-1.14,0.94-3.51,2.15-5.61c0.23-0.4,0.47-0.8,0.72-1.2c0.11,0,0.22-0.01,0.34-0.02
			c-0.29,0.45-0.56,0.91-0.82,1.35c-0.82,1.43-1.47,2.83-1.83,3.97c-0.39,1.23-0.33,1.78-0.14,1.89c0.19,0.11,0.7-0.11,1.57-1.07
			c0.8-0.88,1.69-2.15,2.52-3.57c0.51-0.88,0.99-1.82,1.47-2.79c0.11-0.01,0.22-0.02,0.32-0.04c-0.5,1.03-1.02,2.03-1.56,2.96
			c-1.21,2.1-2.77,4.14-3.78,4.67c0.56,0.05,1.24-0.19,1.99-0.71c1.04-0.73,2.07-1.91,2.88-3.33c0.65-1.13,1.2-2.41,1.7-3.74
			c0.1-0.01,0.21-0.03,0.31-0.05c-0.51,1.4-1.09,2.74-1.77,3.93c-0.84,1.45-1.89,2.66-2.96,3.42c-0.57,0.4-1.11,0.64-1.6,0.73
			c2.09,0.44,4.58-0.87,6-3.32c0.82-1.42,1.33-3.17,1.73-5C94.21,67.51,94.3,67.49,94.4,67.47z M103.31,46.14l-0.36,0.63
			c0.17,0.2,0.21,0.46,0.09,0.67l-6.03,10.45c-0.04,0.08-0.11,0.14-0.18,0.18c-0.01,0.03-0.03,0.07-0.04,0.1
			c-0.95,1.64-1.39,4.05-1.86,6.59c-0.13,0.71-0.26,1.43-0.41,2.15c-0.1,0.02-0.19,0.04-0.29,0.06c0.15-0.75,0.29-1.51,0.43-2.26
			c0.46-2.51,0.9-4.88,1.82-6.56c-0.07,0-0.14-0.02-0.2-0.04c-0.9,1.63-1.6,3.8-2.35,6.09c-0.32,1-0.65,2.02-1.01,3.01
			c-0.1,0.02-0.21,0.03-0.31,0.05c0.37-1.04,0.71-2.1,1.05-3.14c0.75-2.3,1.45-4.48,2.36-6.13l-0.09-0.05
			c-0.92,1.63-1.84,3.67-2.81,5.82c-0.55,1.22-1.11,2.46-1.68,3.66c-0.11,0.01-0.22,0.03-0.32,0.04c0.6-1.25,1.18-2.54,1.76-3.81
			c0.98-2.16,1.9-4.21,2.82-5.85l-0.34-0.2c-0.95,1.62-2.26,3.44-3.65,5.37c-1.12,1.55-2.26,3.15-3.28,4.71
			c-0.11,0.01-0.23,0.01-0.34,0.02c1.05-1.63,2.23-3.28,3.39-4.89c1.38-1.92,2.69-3.74,3.64-5.35l-0.09-0.05
			c-0.97,1.62-2.51,3.32-4.13,5.11c-1.53,1.7-3.1,3.44-4.3,5.23c-0.11,0-0.22,0-0.33,0.01c1.22-1.86,2.85-3.66,4.43-5.42
			c1.61-1.79,3.14-3.48,4.1-5.08c-0.05-0.05-0.1-0.1-0.14-0.16c-0.99,1.64-2.83,3.2-4.77,4.86c-2.12,1.81-4.32,3.68-5.56,5.79
			c-0.1,0-0.21-0.01-0.31-0.01c0.01-0.01,0.01-0.03,0.02-0.04c1.26-2.18,3.51-4.1,5.68-5.95c1.97-1.68,3.84-3.27,4.78-4.91
			c0.02-0.03,0.04-0.06,0.06-0.09c0-0.09,0.02-0.17,0.07-0.25l6.03-10.45c0.12-0.21,0.38-0.31,0.63-0.26l0.36-0.63
			c0.19-0.32,0.59-0.44,0.9-0.26l0.55,0.32C103.4,45.41,103.5,45.82,103.31,46.14z M101.47,46.19l-0.1-0.06
			c-0.18-0.1-0.4-0.07-0.48,0.07l-6.03,10.45c-0.08,0.15,0,0.35,0.18,0.45l0.1,0.06L101.47,46.19z M102.62,46.85l-0.34-0.2
			l-6.33,10.97l0.34,0.2c0.18,0.1,0.4,0.07,0.48-0.07l6.03-10.45C102.88,47.16,102.8,46.96,102.62,46.85z M102.95,45.47l-0.55-0.32
			c-0.18-0.1-0.41-0.03-0.52,0.16l-0.34,0.6l1.19,0.69l0.34-0.6C103.18,45.81,103.13,45.57,102.95,45.47z"/>
		<path class="st1" d="M103.17,63.9L103.17,63.9L103.17,63.9c0-0.25-0.2-0.45-0.45-0.45c-0.25,0-0.45,0.2-0.45,0.45
			c0.01,3.34-20.65,5.56-30.37,2.08c-2.99-1.07-3.86-2.39-1.05-3.8c3.69-1.84,10.79-2.43,14.94-2.51c-4.7-0.1-11.46,0.33-15.16,2.07
			c-3.32,1.56-2.36,3.56,1.04,4.84c8.15,3.07,26.11,2.42,30.51-1.03c-0.65,6.55-5.14,12.22-11.67,14.22
			c-9.14,2.81-18.99-2.7-21.28-12.29c1.91,9.82,11.9,15.76,21.49,12.99C97.89,78.41,103.14,71.82,103.17,63.9L103.17,63.9
			L103.17,63.9z"/>
	</g>
</g>
<g>
</g>
<g>
</g>
<g>
</g>
<g>
</g>
<g>
</g>
<g>
</g>
<g>
</g>
<g>
</g>
<g>
</g>
<g>
</g>
<g>
</g>
<g>
</g>
<g>
</g>
<g>
</g>
<g>
</g>
</svg>
