<?xml version="1.0" encoding="utf-8"?>
<!-- Generator: Adobe Illustrator 24.0.0, SVG Export Plug-In . SVG Version: 6.00 Build 0)  -->
<svg version="1.1" id="Capa_1" xmlns="http://www.w3.org/2000/svg" xmlns:xlink="http://www.w3.org/1999/xlink" x="0px" y="0px"
	 viewBox="0 0 176.9 175.3" style="enable-background:new 0 0 176.9 175.3;" xml:space="preserve">
<style type="text/css">
	.st0{fill:#543228;}
	.st1{fill:#FFFFFF;}
	.st2{fill:#E0C7BF;}
</style>
<g>
	<g>
		
			<ellipse transform="matrix(0.7071 -0.7071 0.7071 0.7071 -36.0624 88.2078)" class="st0" cx="88.4" cy="87.6" rx="81.9" ry="81.9"/>
		<g>
			<g>
				<g>
					<path class="st1" d="M87.8,162.4c-0.4,0-0.7-0.3-0.7-0.7c0-0.4,0.3-0.7,0.7-0.7c0.4,0,0.7,0.3,0.7,0.7
						C88.5,162.1,88.2,162.4,87.8,162.4z"/>
				</g>
				<g>
					<path class="st1" d="M89.9,161.7c0-0.4,0.3-0.7,0.7-0.7c0.4,0,0.7,0.3,0.7,0.7c0,0.4-0.3,0.7-0.7,0.7
						C90.2,162.4,89.9,162.1,89.9,161.7z"/>
				</g>
				<g>
					<path class="st1" d="M85.1,162.3c-0.4,0-0.7-0.3-0.7-0.7c0-0.4,0.3-0.7,0.7-0.6c0.4,0,0.7,0.3,0.6,0.7
						C85.8,162,85.4,162.3,85.1,162.3z"/>
				</g>
				<g>
					<path class="st1" d="M92.6,161.6c0-0.4,0.3-0.7,0.6-0.7c0.4,0,0.7,0.3,0.7,0.6c0,0.4-0.3,0.7-0.6,0.7
						C92.9,162.3,92.6,162,92.6,161.6z"/>
				</g>
				<g>
					<path class="st1" d="M82.3,162.1c-0.4,0-0.7-0.4-0.6-0.7c0-0.4,0.4-0.6,0.7-0.6c0.4,0,0.7,0.4,0.6,0.7
						C83,161.9,82.7,162.2,82.3,162.1z"/>
				</g>
				<g>
					<path class="st1" d="M95.3,161.4c0-0.4,0.2-0.7,0.6-0.7c0.4,0,0.7,0.2,0.7,0.6c0,0.4-0.2,0.7-0.6,0.7
						C95.7,162.1,95.4,161.8,95.3,161.4z"/>
				</g>
				<g>
					<path class="st1" d="M79.6,161.9c-0.4,0-0.6-0.4-0.6-0.8c0-0.4,0.4-0.6,0.8-0.6c0.4,0,0.6,0.4,0.6,0.8
						C80.3,161.7,79.9,161.9,79.6,161.9z"/>
				</g>
				<g>
					<path class="st1" d="M98.1,161.1c-0.1-0.4,0.2-0.7,0.6-0.8c0.4-0.1,0.7,0.2,0.8,0.6c0.1,0.4-0.2,0.7-0.6,0.8
						C98.4,161.7,98.1,161.5,98.1,161.1z"/>
				</g>
				<g>
					<path class="st1" d="M76.8,161.5c-0.4-0.1-0.6-0.4-0.6-0.8c0.1-0.4,0.4-0.6,0.8-0.6c0.4,0.1,0.6,0.4,0.6,0.8
						C77.5,161.3,77.2,161.6,76.8,161.5z"/>
				</g>
				<g>
					<path class="st1" d="M100.8,160.7c-0.1-0.4,0.2-0.7,0.6-0.8c0.4-0.1,0.7,0.2,0.8,0.5c0.1,0.4-0.2,0.7-0.6,0.8
						C101.2,161.3,100.8,161.1,100.8,160.7z"/>
				</g>
				<g>
					<path class="st1" d="M74.1,161c-0.4-0.1-0.6-0.4-0.5-0.8c0.1-0.4,0.4-0.6,0.8-0.5c0.4,0.1,0.6,0.4,0.5,0.8
						C74.8,160.9,74.5,161.1,74.1,161z"/>
				</g>
				<g>
					<path class="st1" d="M103.4,160.2c-0.1-0.4,0.2-0.7,0.5-0.8c0.4-0.1,0.7,0.2,0.8,0.5c0.1,0.4-0.2,0.7-0.5,0.8
						C103.9,160.8,103.5,160.6,103.4,160.2z"/>
				</g>
				<g>
					<path class="st1" d="M71.4,160.5c-0.4-0.1-0.6-0.5-0.5-0.8c0.1-0.4,0.5-0.6,0.8-0.5c0.4,0.1,0.6,0.4,0.5,0.8
						C72.1,160.3,71.8,160.6,71.4,160.5z"/>
				</g>
				<g>
					<path class="st1" d="M106.1,159.6c-0.1-0.4,0.1-0.7,0.5-0.8c0.4-0.1,0.7,0.1,0.8,0.5c0.1,0.4-0.1,0.7-0.5,0.8
						C106.6,160.2,106.2,160,106.1,159.6z"/>
				</g>
				<g>
					<path class="st1" d="M68.7,159.8c-0.4-0.1-0.6-0.5-0.5-0.8c0.1-0.4,0.5-0.6,0.8-0.5c0.4,0.1,0.6,0.5,0.5,0.8
						C69.5,159.7,69.1,159.9,68.7,159.8z"/>
				</g>
				<g>
					<path class="st1" d="M108.8,158.9c-0.1-0.4,0.1-0.7,0.5-0.8c0.4-0.1,0.7,0.1,0.8,0.5c0.1,0.4-0.1,0.7-0.5,0.8
						C109.2,159.5,108.9,159.3,108.8,158.9z"/>
				</g>
				<g>
					<path class="st1" d="M66.1,159c-0.4-0.1-0.6-0.5-0.5-0.9c0.1-0.4,0.5-0.6,0.9-0.4c0.4,0.1,0.6,0.5,0.5,0.8
						C66.8,159,66.4,159.2,66.1,159z"/>
				</g>
				<g>
					<path class="st1" d="M111.4,158.2c-0.1-0.4,0.1-0.7,0.4-0.9c0.4-0.1,0.7,0.1,0.9,0.4c0.1,0.4-0.1,0.7-0.4,0.9
						C111.9,158.7,111.5,158.5,111.4,158.2z"/>
				</g>
				<g>
					<path class="st1" d="M63.4,158.2c-0.4-0.1-0.5-0.5-0.4-0.9c0.1-0.4,0.5-0.5,0.9-0.4c0.4,0.1,0.5,0.5,0.4,0.9
						C64.2,158.1,63.8,158.3,63.4,158.2z"/>
				</g>
				<g>
					<path class="st1" d="M114,157.3c-0.1-0.4,0.1-0.7,0.4-0.9c0.4-0.1,0.7,0,0.9,0.4c0.1,0.4,0,0.7-0.4,0.9
						C114.5,157.8,114.1,157.6,114,157.3z"/>
				</g>
				<g>
					<path class="st1" d="M60.8,157.2c-0.4-0.1-0.5-0.5-0.4-0.9c0.1-0.3,0.5-0.5,0.9-0.4c0.4,0.1,0.5,0.5,0.4,0.9
						C61.6,157.2,61.2,157.4,60.8,157.2z"/>
				</g>
				<g>
					<path class="st1" d="M116.5,156.3c-0.1-0.4,0-0.7,0.4-0.9c0.3-0.1,0.7,0,0.9,0.4c0.1,0.3,0,0.7-0.4,0.9
						C117.1,156.8,116.7,156.7,116.5,156.3z"/>
				</g>
				<g>
					<path class="st1" d="M58.3,156.2c-0.4-0.2-0.5-0.6-0.4-0.9c0.2-0.3,0.6-0.5,0.9-0.3c0.3,0.1,0.5,0.5,0.4,0.9
						C59,156.2,58.6,156.3,58.3,156.2z"/>
				</g>
				<g>
					<path class="st1" d="M119,155.2c-0.2-0.3,0-0.7,0.3-0.9c0.3-0.2,0.7,0,0.9,0.3c0.2,0.3,0,0.7-0.3,0.9
						C119.6,155.7,119.2,155.6,119,155.2z"/>
				</g>
				<g>
					<path class="st1" d="M55.8,155c-0.3-0.2-0.5-0.6-0.3-0.9c0.2-0.3,0.6-0.5,0.9-0.3c0.3,0.2,0.5,0.6,0.3,0.9
						C56.5,155.1,56.1,155.2,55.8,155z"/>
				</g>
				<g>
					<path class="st1" d="M121.5,154.1c-0.2-0.3,0-0.7,0.3-0.9c0.3-0.2,0.7,0,0.9,0.3c0.2,0.3,0,0.7-0.3,0.9
						C122.1,154.6,121.7,154.4,121.5,154.1z"/>
				</g>
				<g>
					<path class="st1" d="M53.3,153.8c-0.3-0.2-0.5-0.6-0.3-0.9c0.2-0.3,0.6-0.5,0.9-0.3c0.3,0.2,0.5,0.6,0.3,0.9
						C54.1,153.8,53.6,154,53.3,153.8z"/>
				</g>
				<g>
					<path class="st1" d="M123.9,152.9c-0.2-0.3-0.1-0.7,0.3-0.9c0.3-0.2,0.7-0.1,0.9,0.3c0.2,0.3,0.1,0.7-0.3,0.9
						C124.5,153.3,124.1,153.2,123.9,152.9z"/>
				</g>
				<g>
					<path class="st1" d="M50.9,152.5c-0.3-0.2-0.4-0.6-0.3-0.9c0.2-0.3,0.6-0.4,0.9-0.2c0.3,0.2,0.4,0.6,0.3,0.9
						C51.6,152.5,51.2,152.7,50.9,152.5z"/>
				</g>
				<g>
					<path class="st1" d="M126.3,151.5c-0.2-0.3-0.1-0.7,0.2-0.9c0.3-0.2,0.7-0.1,0.9,0.2c0.2,0.3,0.1,0.7-0.2,0.9
						C126.9,152,126.5,151.8,126.3,151.5z"/>
				</g>
				<g>
					<path class="st1" d="M48.5,151.1c-0.3-0.2-0.4-0.6-0.2-0.9c0.2-0.3,0.6-0.4,0.9-0.2c0.3,0.2,0.4,0.6,0.2,0.9
						C49.3,151.2,48.8,151.3,48.5,151.1z"/>
				</g>
				<g>
					<path class="st1" d="M128.6,150.1c-0.2-0.3-0.1-0.7,0.2-0.9c0.3-0.2,0.7-0.1,0.9,0.2c0.2,0.3,0.1,0.7-0.2,0.9
						C129.3,150.5,128.8,150.4,128.6,150.1z"/>
				</g>
				<g>
					<path class="st1" d="M46.2,149.6c-0.3-0.2-0.4-0.6-0.2-0.9c0.2-0.3,0.6-0.4,0.9-0.2c0.3,0.2,0.4,0.6,0.2,0.9
						C46.9,149.7,46.5,149.8,46.2,149.6z"/>
				</g>
				<g>
					<path class="st1" d="M130.9,148.6c-0.2-0.3-0.1-0.7,0.2-0.9c0.3-0.2,0.7-0.1,0.9,0.2c0.2,0.3,0.1,0.7-0.2,0.9
						C131.5,149,131.1,148.9,130.9,148.6z"/>
				</g>
				<g>
					<path class="st1" d="M43.9,148c-0.3-0.2-0.4-0.7-0.1-1c0.2-0.3,0.6-0.4,1-0.1c0.3,0.2,0.4,0.6,0.2,0.9
						C44.7,148.1,44.2,148.2,43.9,148z"/>
				</g>
				<g>
					<path class="st1" d="M133.1,147c-0.2-0.3-0.2-0.7,0.1-1c0.3-0.2,0.7-0.2,1,0.1c0.2,0.3,0.2,0.7-0.1,1
						C133.8,147.4,133.3,147.3,133.1,147z"/>
				</g>
				<g>
					<path class="st1" d="M41.7,146.3c-0.3-0.2-0.3-0.7-0.1-1c0.2-0.3,0.7-0.3,1-0.1c0.3,0.2,0.3,0.7,0.1,0.9
						C42.5,146.5,42,146.6,41.7,146.3z"/>
				</g>
				<g>
					<path class="st1" d="M135.3,145.4c-0.2-0.3-0.2-0.7,0.1-1c0.3-0.2,0.7-0.2,1,0.1c0.2,0.3,0.2,0.7-0.1,1
						C135.9,145.7,135.5,145.7,135.3,145.4z"/>
				</g>
				<g>
					<path class="st1" d="M39.6,144.6c-0.3-0.2-0.3-0.7-0.1-1c0.2-0.3,0.7-0.3,1-0.1c0.3,0.2,0.3,0.7,0.1,1
						C40.3,144.8,39.9,144.8,39.6,144.6z"/>
				</g>
				<g>
					<path class="st1" d="M137.4,143.6c-0.2-0.3-0.2-0.7,0.1-1c0.3-0.2,0.7-0.2,1,0.1c0.3,0.3,0.2,0.7-0.1,1
						C138.1,143.9,137.6,143.9,137.4,143.6z"/>
				</g>
				<g>
					<path class="st1" d="M37.5,142.8c-0.3-0.3-0.3-0.7,0-1c0.3-0.3,0.7-0.3,1,0c0.3,0.3,0.3,0.7,0.1,1
						C38.2,143,37.8,143,37.5,142.8z"/>
				</g>
				<g>
					<path class="st1" d="M139.4,141.8c-0.3-0.3-0.2-0.7,0-1c0.3-0.3,0.7-0.2,1,0c0.3,0.3,0.3,0.7,0,1
						C140.1,142.1,139.7,142.1,139.4,141.8z"/>
				</g>
				<g>
					<path class="st1" d="M35.5,140.9c-0.3-0.3-0.3-0.7,0-1c0.3-0.3,0.7-0.3,1,0c0.3,0.3,0.3,0.7,0,1
						C36.2,141.1,35.8,141.2,35.5,140.9z"/>
				</g>
				<g>
					<path class="st1" d="M141.4,139.9c-0.3-0.3-0.3-0.7,0-1c0.3-0.3,0.7-0.3,1,0c0.3,0.3,0.3,0.7,0,1
						C142.1,140.2,141.7,140.2,141.4,139.9z"/>
				</g>
				<g>
					<path class="st1" d="M33.6,138.9c-0.3-0.3-0.2-0.7,0-1c0.3-0.3,0.7-0.2,1,0c0.3,0.3,0.2,0.7,0,1
						C34.3,139.2,33.8,139.2,33.6,138.9z"/>
				</g>
				<g>
					<path class="st1" d="M143.3,138c-0.3-0.3-0.3-0.7,0-1c0.3-0.3,0.7-0.3,1,0c0.3,0.3,0.3,0.7,0,1
						C144,138.2,143.6,138.2,143.3,138z"/>
				</g>
				<g>
					<path class="st1" d="M31.7,136.9c-0.3-0.3-0.2-0.7,0.1-1c0.3-0.2,0.7-0.2,1,0.1c0.2,0.3,0.2,0.7-0.1,1
						C32.4,137.2,32,137.2,31.7,136.9z"/>
				</g>
				<g>
					<path class="st1" d="M145.1,135.9c-0.3-0.2-0.3-0.7-0.1-1c0.2-0.3,0.7-0.3,1-0.1c0.3,0.2,0.3,0.7,0.1,1
						C145.8,136.2,145.4,136.2,145.1,135.9z"/>
				</g>
				<g>
					<path class="st1" d="M29.9,134.8c-0.2-0.3-0.2-0.7,0.1-1c0.3-0.2,0.7-0.2,1,0.1c0.2,0.3,0.2,0.7-0.1,1
						C30.6,135.2,30.2,135.1,29.9,134.8z"/>
				</g>
				<g>
					<path class="st1" d="M146.9,133.9c-0.3-0.2-0.3-0.7-0.1-1c0.2-0.3,0.7-0.3,1-0.1c0.3,0.2,0.3,0.7,0.1,1
						C147.6,134,147.2,134.1,146.9,133.9z"/>
				</g>
				<g>
					<path class="st1" d="M28.2,132.7c-0.2-0.3-0.2-0.7,0.1-1c0.3-0.2,0.7-0.2,1,0.1c0.2,0.3,0.2,0.7-0.1,1
						C28.9,133,28.5,133,28.2,132.7z"/>
				</g>
				<g>
					<path class="st1" d="M148.5,131.7c-0.3-0.2-0.4-0.6-0.1-0.9c0.2-0.3,0.6-0.4,1-0.1c0.3,0.2,0.4,0.6,0.1,1
						C149.3,131.9,148.8,131.9,148.5,131.7z"/>
				</g>
				<g>
					<path class="st1" d="M26.6,130.5c-0.2-0.3-0.1-0.7,0.2-0.9c0.3-0.2,0.7-0.1,1,0.2c0.2,0.3,0.1,0.7-0.2,0.9
						C27.2,130.8,26.8,130.8,26.6,130.5z"/>
				</g>
				<g>
					<path class="st1" d="M150.1,129.5c-0.3-0.2-0.4-0.6-0.2-0.9c0.2-0.3,0.6-0.4,0.9-0.2c0.3,0.2,0.4,0.6,0.2,0.9
						C150.9,129.6,150.4,129.7,150.1,129.5z"/>
				</g>
				<g>
					<path class="st1" d="M25,128.2c-0.2-0.3-0.1-0.7,0.2-0.9c0.3-0.2,0.7-0.1,0.9,0.2c0.2,0.3,0.1,0.7-0.2,0.9
						C25.7,128.6,25.3,128.5,25,128.2z"/>
				</g>
				<g>
					<path class="st1" d="M151.6,127.2c-0.3-0.2-0.4-0.6-0.2-0.9c0.2-0.3,0.6-0.4,0.9-0.2c0.3,0.2,0.4,0.6,0.2,0.9
						C152.4,127.3,152,127.4,151.6,127.2z"/>
				</g>
				<g>
					<path class="st1" d="M23.6,125.9c-0.2-0.3-0.1-0.7,0.2-0.9c0.3-0.2,0.7-0.1,0.9,0.2c0.2,0.3,0.1,0.7-0.2,0.9
						C24.2,126.3,23.8,126.2,23.6,125.9z"/>
				</g>
				<g>
					<path class="st1" d="M153.1,124.9c-0.3-0.2-0.4-0.6-0.2-0.9c0.2-0.3,0.6-0.4,0.9-0.3c0.3,0.2,0.4,0.6,0.3,0.9
						C153.8,125,153.4,125.1,153.1,124.9z"/>
				</g>
				<g>
					<path class="st1" d="M22.2,123.5c-0.2-0.3-0.1-0.7,0.3-0.9c0.3-0.2,0.7-0.1,0.9,0.3c0.2,0.3,0.1,0.7-0.3,0.9
						C22.8,123.9,22.4,123.8,22.2,123.5z"/>
				</g>
				<g>
					<path class="st1" d="M154.4,122.5c-0.3-0.2-0.5-0.6-0.3-0.9c0.2-0.3,0.6-0.5,0.9-0.3c0.3,0.2,0.5,0.6,0.3,0.9
						C155.2,122.6,154.8,122.7,154.4,122.5z"/>
				</g>
				<g>
					<path class="st1" d="M20.9,121.1c-0.2-0.3,0-0.7,0.3-0.9c0.3-0.2,0.7,0,0.9,0.3c0.2,0.3,0,0.7-0.3,0.9
						C21.5,121.5,21.1,121.4,20.9,121.1z"/>
				</g>
				<g>
					<path class="st1" d="M155.7,120.1c-0.3-0.2-0.5-0.6-0.3-0.9c0.2-0.3,0.6-0.5,0.9-0.3c0.3,0.2,0.5,0.6,0.3,0.9
						C156.4,120.1,156,120.3,155.7,120.1z"/>
				</g>
				<g>
					<path class="st1" d="M19.7,118.6c-0.2-0.3,0-0.7,0.3-0.9c0.3-0.2,0.7,0,0.9,0.3c0.2,0.3,0,0.7-0.3,0.9
						C20.3,119.1,19.9,119,19.7,118.6z"/>
				</g>
				<g>
					<path class="st1" d="M156.8,117.6c-0.3-0.2-0.5-0.6-0.4-0.9c0.2-0.3,0.6-0.5,0.9-0.4c0.3,0.1,0.5,0.5,0.4,0.9
						C157.6,117.6,157.2,117.8,156.8,117.6z"/>
				</g>
				<g>
					<path class="st1" d="M18.6,116.1c-0.1-0.4,0-0.7,0.4-0.9c0.3-0.1,0.7,0,0.9,0.4c0.1,0.3,0,0.7-0.4,0.9
						C19.2,116.6,18.8,116.5,18.6,116.1z"/>
				</g>
				<g>
					<path class="st1" d="M157.9,115.1c-0.4-0.1-0.5-0.5-0.4-0.9c0.1-0.3,0.5-0.5,0.9-0.4c0.4,0.1,0.5,0.5,0.4,0.9
						C158.7,115.1,158.3,115.3,157.9,115.1z"/>
				</g>
				<g>
					<path class="st1" d="M17.6,113.6c-0.1-0.4,0-0.7,0.4-0.9c0.4-0.1,0.7,0.1,0.9,0.4c0.1,0.3,0,0.7-0.4,0.9
						C18.1,114.1,17.8,113.9,17.6,113.6z"/>
				</g>
				<g>
					<path class="st1" d="M158.9,112.6c-0.4-0.1-0.5-0.5-0.4-0.9c0.1-0.4,0.5-0.5,0.9-0.4c0.4,0.1,0.5,0.5,0.4,0.9
						C159.7,112.5,159.3,112.7,158.9,112.6z"/>
				</g>
				<g>
					<path class="st1" d="M16.7,111c-0.1-0.4,0.1-0.7,0.4-0.9c0.4-0.1,0.7,0.1,0.9,0.4c0.1,0.4-0.1,0.7-0.4,0.9
						C17.2,111.5,16.8,111.3,16.7,111z"/>
				</g>
				<g>
					<path class="st1" d="M159.8,110c-0.4-0.1-0.6-0.5-0.4-0.8c0.1-0.4,0.5-0.6,0.9-0.5c0.4,0.1,0.6,0.5,0.4,0.9
						C160.5,109.9,160.1,110.1,159.8,110z"/>
				</g>
				<g>
					<path class="st1" d="M15.9,108.3c-0.1-0.4,0.1-0.7,0.5-0.8c0.4-0.1,0.7,0.1,0.8,0.5c0.1,0.4-0.1,0.7-0.5,0.8
						C16.4,108.9,16,108.7,15.9,108.3z"/>
				</g>
				<g>
					<path class="st1" d="M160.6,107.4c-0.4-0.1-0.6-0.5-0.5-0.8c0.1-0.4,0.5-0.6,0.8-0.5c0.4,0.1,0.6,0.5,0.5,0.8
						C161.3,107.3,160.9,107.5,160.6,107.4z"/>
				</g>
				<g>
					<path class="st1" d="M15.2,105.7c-0.1-0.4,0.1-0.7,0.5-0.8c0.4-0.1,0.7,0.1,0.8,0.5c0.1,0.4-0.1,0.7-0.5,0.8
						C15.6,106.3,15.2,106.1,15.2,105.7z"/>
				</g>
				<g>
					<path class="st1" d="M161.3,104.8c-0.4-0.1-0.6-0.5-0.5-0.8c0.1-0.4,0.4-0.6,0.8-0.5c0.4,0.1,0.6,0.4,0.5,0.8
						C162,104.6,161.6,104.8,161.3,104.8z"/>
				</g>
				<g>
					<path class="st1" d="M14.5,103c-0.1-0.4,0.2-0.7,0.5-0.8c0.4-0.1,0.7,0.2,0.8,0.5c0.1,0.4-0.2,0.7-0.5,0.8
						C15,103.6,14.6,103.4,14.5,103z"/>
				</g>
				<g>
					<path class="st1" d="M161.9,102.1c-0.4-0.1-0.6-0.4-0.5-0.8c0.1-0.4,0.4-0.6,0.8-0.5c0.4,0.1,0.6,0.4,0.5,0.8
						C162.6,101.9,162.2,102.2,161.9,102.1z"/>
				</g>
				<g>
					<path class="st1" d="M14,100.3c-0.1-0.4,0.2-0.7,0.6-0.8c0.4-0.1,0.7,0.2,0.8,0.6c0.1,0.4-0.2,0.7-0.6,0.8
						C14.4,100.9,14.1,100.7,14,100.3z"/>
				</g>
				<g>
					<path class="st1" d="M162.4,99.4c-0.4-0.1-0.6-0.4-0.6-0.8c0.1-0.4,0.4-0.6,0.8-0.6c0.4,0.1,0.6,0.4,0.6,0.8
						C163.1,99.2,162.7,99.5,162.4,99.4z"/>
				</g>
				<g>
					<path class="st1" d="M13.6,97.6c-0.1-0.4,0.2-0.7,0.6-0.8c0.4,0,0.7,0.2,0.8,0.6c0.1,0.4-0.2,0.7-0.6,0.8
						C14,98.3,13.6,98,13.6,97.6z"/>
				</g>
				<g>
					<path class="st1" d="M162.7,96.7c-0.4,0-0.6-0.4-0.6-0.8c0-0.4,0.4-0.6,0.8-0.6c0.4,0,0.6,0.4,0.6,0.8
						C163.5,96.5,163.1,96.8,162.7,96.7z"/>
				</g>
				<g>
					<path class="st1" d="M13.2,94.9c0-0.4,0.2-0.7,0.6-0.7c0.4,0,0.7,0.2,0.7,0.6c0,0.4-0.2,0.7-0.6,0.7
						C13.6,95.5,13.3,95.3,13.2,94.9z"/>
				</g>
				<g>
					<path class="st1" d="M163,94c-0.4,0-0.7-0.4-0.6-0.7c0-0.4,0.4-0.7,0.7-0.6c0.4,0,0.7,0.4,0.6,0.7
						C163.7,93.8,163.4,94.1,163,94z"/>
				</g>
				<g>
					<path class="st1" d="M13,92.2c0-0.4,0.3-0.7,0.6-0.7c0.4,0,0.7,0.3,0.7,0.6c0,0.4-0.3,0.7-0.6,0.7C13.4,92.8,13,92.5,13,92.2z"
						/>
				</g>
				<g>
					<path class="st1" d="M163.2,91.3c-0.4,0-0.7-0.3-0.6-0.7c0-0.4,0.3-0.7,0.7-0.7c0.4,0,0.7,0.3,0.7,0.7
						C163.9,91,163.6,91.3,163.2,91.3z"/>
				</g>
				<g>
					<path class="st1" d="M12.9,89.4c0-0.4,0.3-0.7,0.7-0.7c0.4,0,0.7,0.3,0.7,0.7c0,0.4-0.3,0.7-0.7,0.7
						C13.2,90.1,12.9,89.8,12.9,89.4z"/>
				</g>
				<g>
					<path class="st1" d="M162.6,85c0-0.4,0.3-0.7,0.7-0.7c0.4,0,0.7,0.3,0.7,0.7c0,0.4-0.3,0.7-0.7,0.7
						C163,85.6,162.6,85.3,162.6,85z"/>
				</g>
				<g>
					<path class="st1" d="M162.6,87.9c0-0.4,0.3-0.7,0.7-0.7c0.4,0,0.7,0.3,0.7,0.7c0,0.4-0.3,0.7-0.7,0.7
						C163,88.5,162.6,88.2,162.6,87.9z"/>
				</g>
				<g>
					<path class="st1" d="M13.6,84.6c-0.4,0-0.7-0.3-0.7-0.7c0-0.4,0.3-0.7,0.7-0.6c0.4,0,0.7,0.3,0.7,0.7
						C14.3,84.4,14,84.7,13.6,84.6z"/>
				</g>
				<g>
					<path class="st1" d="M13.5,87.3c-0.4,0-0.7-0.3-0.7-0.7c0-0.4,0.3-0.7,0.7-0.6c0.4,0,0.7,0.3,0.7,0.7
						C14.2,87,13.9,87.3,13.5,87.3z"/>
				</g>
				<g>
					<path class="st1" d="M162.5,82.3c0-0.4,0.3-0.7,0.6-0.7c0.4,0,0.7,0.3,0.7,0.6c0,0.4-0.3,0.7-0.6,0.7
						C162.8,82.9,162.5,82.6,162.5,82.3z"/>
				</g>
				<g>
					<path class="st1" d="M13.7,81.9c-0.4,0-0.7-0.4-0.6-0.7c0-0.4,0.4-0.7,0.7-0.6c0.4,0,0.7,0.4,0.6,0.7
						C14.4,81.7,14.1,82,13.7,81.9z"/>
				</g>
				<g>
					<path class="st1" d="M162.3,79.6c0-0.4,0.2-0.7,0.6-0.7c0.4,0,0.7,0.2,0.8,0.6c0,0.4-0.2,0.7-0.6,0.7
						C162.6,80.2,162.3,80,162.3,79.6z"/>
				</g>
				<g>
					<path class="st1" d="M14,79.2c-0.4,0-0.6-0.4-0.6-0.8c0-0.4,0.4-0.6,0.8-0.6c0.4,0,0.6,0.4,0.6,0.8C14.7,79,14.3,79.3,14,79.2z
						"/>
				</g>
				<g>
					<path class="st1" d="M161.9,76.9c-0.1-0.4,0.2-0.7,0.6-0.8c0.4-0.1,0.7,0.2,0.8,0.6c0.1,0.4-0.2,0.7-0.6,0.8
						C162.3,77.5,162,77.3,161.9,76.9z"/>
				</g>
				<g>
					<path class="st1" d="M14.3,76.5c-0.4-0.1-0.6-0.4-0.6-0.8c0.1-0.4,0.4-0.6,0.8-0.6c0.4,0.1,0.6,0.4,0.6,0.8
						C15,76.3,14.7,76.6,14.3,76.5z"/>
				</g>
				<g>
					<path class="st1" d="M161.5,74.3c-0.1-0.4,0.2-0.7,0.6-0.8c0.4-0.1,0.7,0.2,0.8,0.6c0.1,0.4-0.2,0.7-0.6,0.8
						C161.9,74.9,161.6,74.6,161.5,74.3z"/>
				</g>
				<g>
					<path class="st1" d="M14.7,73.8c-0.4-0.1-0.6-0.4-0.5-0.8c0.1-0.4,0.4-0.6,0.8-0.5c0.4,0.1,0.6,0.4,0.5,0.8
						C15.5,73.7,15.1,73.9,14.7,73.8z"/>
				</g>
				<g>
					<path class="st1" d="M161,71.6c-0.1-0.4,0.2-0.7,0.5-0.8c0.4-0.1,0.7,0.2,0.8,0.5c0.1,0.4-0.2,0.7-0.5,0.8
						C161.4,72.2,161.1,72,161,71.6z"/>
				</g>
				<g>
					<path class="st1" d="M15.3,71.2c-0.4-0.1-0.6-0.4-0.5-0.8c0.1-0.4,0.5-0.6,0.8-0.5c0.4,0.1,0.6,0.5,0.5,0.8
						C16,71,15.7,71.3,15.3,71.2z"/>
				</g>
				<g>
					<path class="st1" d="M160.4,69c-0.1-0.4,0.1-0.7,0.5-0.8c0.4-0.1,0.7,0.1,0.8,0.5c0.1,0.4-0.1,0.7-0.5,0.8
						C160.8,69.6,160.5,69.3,160.4,69z"/>
				</g>
				<g>
					<path class="st1" d="M15.9,68.5c-0.4-0.1-0.6-0.5-0.5-0.8c0.1-0.4,0.5-0.6,0.8-0.5c0.4,0.1,0.6,0.5,0.5,0.8
						C16.7,68.4,16.3,68.6,15.9,68.5z"/>
				</g>
				<g>
					<path class="st1" d="M159.7,66.4c-0.1-0.4,0.1-0.7,0.5-0.8c0.4-0.1,0.7,0.1,0.8,0.5c0.1,0.4-0.1,0.7-0.5,0.8
						C160.1,67,159.8,66.7,159.7,66.4z"/>
				</g>
				<g>
					<path class="st1" d="M16.7,65.9c-0.4-0.1-0.6-0.5-0.5-0.8c0.1-0.4,0.5-0.6,0.9-0.4c0.4,0.1,0.6,0.5,0.4,0.8
						C17.4,65.8,17,66,16.7,65.9z"/>
				</g>
				<g>
					<path class="st1" d="M158.9,63.8c-0.1-0.4,0.1-0.7,0.4-0.9c0.4-0.1,0.7,0.1,0.9,0.4c0.1,0.4-0.1,0.7-0.4,0.9
						C159.4,64.4,159,64.2,158.9,63.8z"/>
				</g>
				<g>
					<path class="st1" d="M17.5,63.3c-0.4-0.1-0.5-0.5-0.4-0.9c0.1-0.4,0.5-0.5,0.9-0.4c0.4,0.1,0.5,0.5,0.4,0.9
						C18.2,63.2,17.8,63.4,17.5,63.3z"/>
				</g>
				<g>
					<path class="st1" d="M157.9,61.3c-0.1-0.3,0-0.7,0.4-0.9c0.4-0.1,0.7,0,0.9,0.4c0.1,0.4,0,0.7-0.4,0.9
						C158.5,61.8,158.1,61.6,157.9,61.3z"/>
				</g>
				<g>
					<path class="st1" d="M18.4,60.7c-0.4-0.1-0.5-0.5-0.4-0.9c0.1-0.4,0.5-0.5,0.9-0.4c0.3,0.1,0.5,0.5,0.4,0.9
						C19.2,60.7,18.8,60.9,18.4,60.7z"/>
				</g>
				<g>
					<path class="st1" d="M156.9,58.8c-0.1-0.3,0-0.7,0.4-0.9c0.3-0.1,0.8,0,0.9,0.4c0.1,0.4,0,0.7-0.4,0.9
						C157.5,59.3,157.1,59.1,156.9,58.8z"/>
				</g>
				<g>
					<path class="st1" d="M19.4,58.2c-0.3-0.1-0.5-0.5-0.4-0.9c0.2-0.3,0.6-0.5,0.9-0.4c0.3,0.2,0.5,0.6,0.4,0.9
						C20.2,58.2,19.8,58.4,19.4,58.2z"/>
				</g>
				<g>
					<path class="st1" d="M155.9,56.3c-0.2-0.3,0-0.7,0.3-0.9c0.3-0.2,0.7,0,0.9,0.3c0.2,0.3,0,0.7-0.3,0.9
						C156.4,56.8,156,56.7,155.9,56.3z"/>
				</g>
				<g>
					<path class="st1" d="M20.6,55.7c-0.3-0.2-0.5-0.6-0.3-0.9c0.2-0.3,0.6-0.5,0.9-0.3c0.3,0.2,0.5,0.6,0.3,0.9
						C21.3,55.7,20.9,55.9,20.6,55.7z"/>
				</g>
				<g>
					<path class="st1" d="M154.7,53.9c-0.2-0.3,0-0.7,0.3-0.9c0.3-0.2,0.7,0,0.9,0.3c0.2,0.3,0,0.7-0.3,0.9
						C155.3,54.4,154.9,54.2,154.7,53.9z"/>
				</g>
				<g>
					<path class="st1" d="M21.8,53.3c-0.3-0.2-0.5-0.6-0.3-0.9c0.2-0.3,0.6-0.5,0.9-0.3c0.3,0.2,0.5,0.6,0.3,0.9
						C22.5,53.3,22.1,53.4,21.8,53.3z"/>
				</g>
				<g>
					<path class="st1" d="M153.4,51.5c-0.2-0.3-0.1-0.7,0.3-0.9c0.3-0.2,0.7-0.1,0.9,0.3c0.2,0.3,0.1,0.7-0.3,0.9
						C154,52,153.6,51.9,153.4,51.5z"/>
				</g>
				<g>
					<path class="st1" d="M23.1,50.9c-0.3-0.2-0.4-0.6-0.3-0.9c0.2-0.3,0.6-0.4,0.9-0.3c0.3,0.2,0.4,0.6,0.2,0.9
						C23.8,50.9,23.4,51.1,23.1,50.9z"/>
				</g>
				<g>
					<path class="st1" d="M152.1,49.2c-0.2-0.3-0.1-0.7,0.2-0.9c0.3-0.2,0.7-0.1,0.9,0.2c0.2,0.3,0.1,0.7-0.2,0.9
						C152.7,49.6,152.3,49.5,152.1,49.2z"/>
				</g>
				<g>
					<path class="st1" d="M24.4,48.5c-0.3-0.2-0.4-0.6-0.2-0.9c0.2-0.3,0.6-0.4,0.9-0.2c0.3,0.2,0.4,0.6,0.2,0.9
						C25.2,48.6,24.8,48.7,24.4,48.5z"/>
				</g>
				<g>
					<path class="st1" d="M150.6,46.9c-0.2-0.3-0.1-0.7,0.2-0.9c0.3-0.2,0.7-0.1,0.9,0.2c0.2,0.3,0.1,0.7-0.2,0.9
						C151.2,47.3,150.8,47.2,150.6,46.9z"/>
				</g>
				<g>
					<path class="st1" d="M25.9,46.2c-0.3-0.2-0.4-0.6-0.2-0.9c0.2-0.3,0.6-0.4,1-0.2c0.3,0.2,0.4,0.6,0.2,0.9
						C26.6,46.3,26.2,46.4,25.9,46.2z"/>
				</g>
				<g>
					<path class="st1" d="M149.1,44.7c-0.2-0.3-0.1-0.7,0.2-0.9c0.3-0.2,0.7-0.1,1,0.2c0.2,0.3,0.1,0.7-0.2,0.9
						C149.7,45.1,149.3,45,149.1,44.7z"/>
				</g>
				<g>
					<path class="st1" d="M27.5,44c-0.3-0.2-0.4-0.6-0.2-1c0.2-0.3,0.7-0.4,1-0.1c0.3,0.2,0.4,0.6,0.1,1
						C28.2,44.1,27.8,44.2,27.5,44z"/>
				</g>
				<g>
					<path class="st1" d="M147.5,42.5c-0.2-0.3-0.2-0.7,0.1-1c0.3-0.2,0.7-0.2,1,0.1c0.2,0.3,0.2,0.7-0.1,1
						C148.2,42.9,147.7,42.8,147.5,42.5z"/>
				</g>
				<g>
					<path class="st1" d="M29.1,41.8c-0.3-0.2-0.4-0.7-0.1-1c0.2-0.3,0.7-0.3,1-0.1c0.3,0.2,0.3,0.7,0.1,1
						C29.8,42,29.4,42,29.1,41.8z"/>
				</g>
				<g>
					<path class="st1" d="M145.8,40.4c-0.2-0.3-0.2-0.7,0.1-1c0.3-0.2,0.7-0.2,1,0.1c0.2,0.3,0.2,0.7-0.1,1
						C146.5,40.7,146.1,40.7,145.8,40.4z"/>
				</g>
				<g>
					<path class="st1" d="M30.8,39.7c-0.3-0.2-0.3-0.7-0.1-1c0.2-0.3,0.7-0.3,1-0.1c0.3,0.2,0.3,0.7,0.1,1
						C31.5,39.9,31.1,39.9,30.8,39.7z"/>
				</g>
				<g>
					<path class="st1" d="M144.1,38.4c-0.2-0.3-0.2-0.7,0.1-1c0.3-0.3,0.7-0.2,1,0.1c0.3,0.3,0.2,0.7-0.1,1
						C144.7,38.7,144.3,38.6,144.1,38.4z"/>
				</g>
				<g>
					<path class="st1" d="M32.6,37.6c-0.3-0.3-0.3-0.7,0-1c0.3-0.3,0.7-0.3,1,0c0.3,0.3,0.3,0.7,0,1C33.3,37.8,32.9,37.9,32.6,37.6z
						"/>
				</g>
				<g>
					<path class="st1" d="M142.2,36.4c-0.3-0.3-0.3-0.7,0-1c0.3-0.3,0.7-0.3,1,0c0.3,0.3,0.2,0.7,0,1
						C142.9,36.7,142.5,36.7,142.2,36.4z"/>
				</g>
				<g>
					<path class="st1" d="M34.5,35.6c-0.3-0.3-0.3-0.7,0-1c0.3-0.3,0.7-0.3,1,0c0.3,0.3,0.3,0.7,0,1C35.2,35.9,34.7,35.9,34.5,35.6z
						"/>
				</g>
				<g>
					<path class="st1" d="M140.3,34.5c-0.3-0.3-0.3-0.7,0-1c0.3-0.3,0.7-0.3,1,0c0.3,0.3,0.3,0.7,0,1
						C141,34.7,140.6,34.7,140.3,34.5z"/>
				</g>
				<g>
					<path class="st1" d="M36.4,33.7c-0.3-0.3-0.3-0.7,0-1c0.3-0.3,0.7-0.3,1,0c0.3,0.3,0.2,0.7,0,1C37.1,34,36.6,34,36.4,33.7z"/>
				</g>
				<g>
					<path class="st1" d="M138.4,32.6c-0.3-0.2-0.3-0.7,0-1c0.3-0.3,0.7-0.3,1,0c0.3,0.3,0.3,0.7,0,1
						C139.1,32.8,138.6,32.9,138.4,32.6z"/>
				</g>
				<g>
					<path class="st1" d="M38.4,31.8c-0.3-0.3-0.2-0.7,0.1-1c0.3-0.3,0.7-0.2,1,0.1c0.2,0.3,0.2,0.7-0.1,1
						C39.1,32.1,38.6,32.1,38.4,31.8z"/>
				</g>
				<g>
					<path class="st1" d="M136.3,30.8c-0.3-0.2-0.3-0.7-0.1-1c0.2-0.3,0.7-0.3,1-0.1c0.3,0.2,0.3,0.7,0.1,1
						C137,31,136.6,31.1,136.3,30.8z"/>
				</g>
				<g>
					<path class="st1" d="M40.4,30.1c-0.2-0.3-0.2-0.7,0.1-1c0.3-0.2,0.7-0.2,1,0.1c0.2,0.3,0.2,0.7-0.1,1
						C41.1,30.4,40.7,30.3,40.4,30.1z"/>
				</g>
				<g>
					<path class="st1" d="M134.2,29.1c-0.3-0.2-0.3-0.7-0.1-1c0.2-0.3,0.7-0.4,1-0.1c0.3,0.2,0.3,0.7,0.1,1
						C134.9,29.3,134.5,29.4,134.2,29.1z"/>
				</g>
				<g>
					<path class="st1" d="M42.6,28.4c-0.2-0.3-0.2-0.7,0.1-1c0.3-0.2,0.7-0.2,1,0.1c0.2,0.3,0.2,0.7-0.1,0.9
						C43.2,28.7,42.8,28.6,42.6,28.4z"/>
				</g>
				<g>
					<path class="st1" d="M132.1,27.5c-0.3-0.2-0.4-0.6-0.2-0.9c0.2-0.3,0.7-0.4,1-0.1c0.3,0.2,0.4,0.6,0.2,1
						C132.8,27.7,132.4,27.7,132.1,27.5z"/>
				</g>
				<g>
					<path class="st1" d="M44.8,26.7c-0.2-0.3-0.1-0.7,0.2-0.9c0.3-0.2,0.7-0.1,1,0.2c0.2,0.3,0.1,0.7-0.2,0.9
						C45.4,27.1,45,27,44.8,26.7z"/>
				</g>
				<g>
					<path class="st1" d="M129.8,26c-0.3-0.2-0.4-0.6-0.2-0.9c0.2-0.3,0.6-0.4,1-0.2c0.3,0.2,0.4,0.6,0.2,0.9
						C130.6,26.1,130.1,26.2,129.8,26z"/>
				</g>
				<g>
					<path class="st1" d="M47,25.2c-0.2-0.3-0.1-0.7,0.2-0.9c0.3-0.2,0.7-0.1,0.9,0.2c0.2,0.3,0.1,0.7-0.2,0.9
						C47.6,25.6,47.2,25.5,47,25.2z"/>
				</g>
				<g>
					<path class="st1" d="M127.5,24.5c-0.3-0.2-0.4-0.6-0.2-0.9c0.2-0.3,0.6-0.4,0.9-0.2c0.3,0.2,0.4,0.6,0.2,0.9
						C128.3,24.6,127.9,24.7,127.5,24.5z"/>
				</g>
				<g>
					<path class="st1" d="M49.3,23.7c-0.2-0.3-0.1-0.7,0.2-0.9c0.3-0.2,0.7-0.1,0.9,0.2c0.2,0.3,0.1,0.7-0.2,0.9
						C49.9,24.1,49.5,24,49.3,23.7z"/>
				</g>
				<g>
					<path class="st1" d="M125.2,23.1c-0.3-0.2-0.4-0.6-0.3-0.9c0.2-0.3,0.6-0.4,0.9-0.3c0.3,0.2,0.4,0.6,0.3,0.9
						C126,23.2,125.5,23.3,125.2,23.1z"/>
				</g>
				<g>
					<path class="st1" d="M51.7,22.3c-0.2-0.3-0.1-0.7,0.3-0.9c0.3-0.2,0.8-0.1,0.9,0.3c0.2,0.3,0.1,0.7-0.3,0.9
						C52.3,22.8,51.8,22.7,51.7,22.3z"/>
				</g>
				<g>
					<path class="st1" d="M122.8,21.8c-0.3-0.2-0.5-0.6-0.3-0.9c0.2-0.3,0.6-0.5,0.9-0.3c0.3,0.2,0.5,0.6,0.3,0.9
						C123.6,21.9,123.2,22,122.8,21.8z"/>
				</g>
				<g>
					<path class="st1" d="M54.1,21.1c-0.2-0.3,0-0.7,0.3-0.9c0.3-0.2,0.8,0,0.9,0.3c0.2,0.3,0,0.7-0.3,0.9
						C54.6,21.5,54.2,21.4,54.1,21.1z"/>
				</g>
				<g>
					<path class="st1" d="M120.4,20.6c-0.3-0.2-0.5-0.6-0.3-0.9c0.2-0.3,0.6-0.5,0.9-0.3c0.3,0.2,0.5,0.6,0.3,0.9
						C121.2,20.6,120.7,20.8,120.4,20.6z"/>
				</g>
				<g>
					<path class="st1" d="M56.5,19.9c-0.2-0.3,0-0.7,0.3-0.9c0.3-0.2,0.8,0,0.9,0.3c0.2,0.3,0,0.7-0.3,0.9
						C57.1,20.3,56.7,20.2,56.5,19.9z"/>
				</g>
				<g>
					<path class="st1" d="M117.9,19.5c-0.3-0.2-0.5-0.5-0.4-0.9c0.1-0.3,0.6-0.5,0.9-0.4c0.3,0.2,0.5,0.6,0.4,0.9
						C118.7,19.5,118.3,19.6,117.9,19.5z"/>
				</g>
				<g>
					<path class="st1" d="M59,18.7c-0.1-0.3,0-0.7,0.4-0.9c0.3-0.1,0.8,0,0.9,0.4c0.1,0.3,0,0.7-0.4,0.9
						C59.5,19.2,59.1,19.1,59,18.7z"/>
				</g>
				<g>
					<path class="st1" d="M115.4,18.5c-0.3-0.1-0.5-0.5-0.4-0.9c0.1-0.4,0.5-0.5,0.9-0.4c0.4,0.1,0.5,0.5,0.4,0.9
						C116.2,18.4,115.8,18.6,115.4,18.5z"/>
				</g>
				<g>
					<path class="st1" d="M61.5,17.7c-0.1-0.3,0-0.7,0.4-0.9c0.4-0.1,0.8,0,0.9,0.4c0.1,0.4-0.1,0.7-0.4,0.9
						C62,18.2,61.7,18.1,61.5,17.7z"/>
				</g>
				<g>
					<path class="st1" d="M112.9,17.5c-0.4-0.1-0.5-0.5-0.4-0.9c0.1-0.4,0.5-0.5,0.9-0.4c0.4,0.1,0.5,0.5,0.4,0.9
						C113.6,17.5,113.2,17.7,112.9,17.5z"/>
				</g>
				<g>
					<path class="st1" d="M64.1,16.8c-0.1-0.4,0.1-0.7,0.4-0.9c0.4-0.1,0.8,0.1,0.9,0.4c0.1,0.4-0.1,0.7-0.4,0.9
						C64.6,17.3,64.2,17.1,64.1,16.8z"/>
				</g>
				<g>
					<path class="st1" d="M110.3,16.7c-0.4-0.1-0.6-0.5-0.5-0.8c0.1-0.4,0.5-0.6,0.9-0.5c0.4,0.1,0.6,0.5,0.4,0.8
						C111,16.6,110.6,16.8,110.3,16.7z"/>
				</g>
				<g>
					<path class="st1" d="M66.7,16c-0.1-0.4,0.1-0.7,0.5-0.8c0.4-0.1,0.7,0.1,0.8,0.5c0.1,0.4-0.1,0.7-0.5,0.8
						C67.2,16.5,66.8,16.3,66.7,16z"/>
				</g>
				<g>
					<path class="st1" d="M107.7,15.9c-0.4-0.1-0.6-0.5-0.5-0.8c0.1-0.4,0.5-0.6,0.8-0.5c0.4,0.1,0.6,0.5,0.5,0.8
						C108.4,15.8,108,16,107.7,15.9z"/>
				</g>
				<g>
					<path class="st1" d="M69.3,15.2c-0.1-0.4,0.1-0.7,0.5-0.8c0.4-0.1,0.7,0.1,0.8,0.5c0.1,0.4-0.1,0.7-0.5,0.8
						C69.8,15.8,69.4,15.6,69.3,15.2z"/>
				</g>
				<g>
					<path class="st1" d="M105.1,15.3c-0.4-0.1-0.6-0.4-0.5-0.8c0.1-0.4,0.4-0.6,0.8-0.5c0.4,0.1,0.6,0.5,0.5,0.8
						C105.8,15.1,105.4,15.4,105.1,15.3z"/>
				</g>
				<g>
					<path class="st1" d="M72,14.6c-0.1-0.4,0.2-0.7,0.5-0.8c0.4-0.1,0.7,0.2,0.8,0.5c0.1,0.4-0.2,0.7-0.5,0.8
						C72.4,15.2,72.1,14.9,72,14.6z"/>
				</g>
				<g>
					<path class="st1" d="M102.4,14.7c-0.4-0.1-0.6-0.4-0.5-0.8c0.1-0.4,0.4-0.6,0.8-0.5c0.4,0.1,0.6,0.4,0.5,0.8
						C103.1,14.6,102.8,14.8,102.4,14.7z"/>
				</g>
				<g>
					<path class="st1" d="M74.7,14c-0.1-0.4,0.2-0.7,0.6-0.8c0.4-0.1,0.7,0.2,0.8,0.6c0.1,0.4-0.2,0.7-0.6,0.8
						C75.1,14.6,74.7,14.4,74.7,14z"/>
				</g>
				<g>
					<path class="st1" d="M99.7,14.3c-0.4-0.1-0.6-0.4-0.6-0.8c0.1-0.4,0.4-0.6,0.8-0.6c0.4,0.1,0.6,0.4,0.6,0.8
						C100.4,14.1,100.1,14.3,99.7,14.3z"/>
				</g>
				<g>
					<path class="st1" d="M77.4,13.6c-0.1-0.4,0.2-0.7,0.6-0.8c0.4-0.1,0.7,0.2,0.8,0.6c0,0.4-0.2,0.7-0.6,0.8
						C77.8,14.2,77.4,13.9,77.4,13.6z"/>
				</g>
				<g>
					<path class="st1" d="M97,13.9c-0.4,0-0.6-0.4-0.6-0.7c0-0.4,0.4-0.6,0.8-0.6c0.4,0,0.6,0.4,0.6,0.8C97.8,13.7,97.4,14,97,13.9z
						"/>
				</g>
				<g>
					<path class="st1" d="M80.1,13.2c0-0.4,0.2-0.7,0.6-0.7c0.4,0,0.7,0.2,0.8,0.6c0,0.4-0.2,0.7-0.6,0.7
						C80.4,13.9,80.1,13.6,80.1,13.2z"/>
				</g>
				<g>
					<path class="st1" d="M94.3,13.7c-0.4,0-0.7-0.4-0.6-0.7c0-0.4,0.4-0.7,0.7-0.6c0.4,0,0.7,0.4,0.6,0.7
						C95,13.4,94.7,13.7,94.3,13.7z"/>
				</g>
				<g>
					<path class="st1" d="M82.8,13c0-0.4,0.3-0.7,0.6-0.7c0.4,0,0.7,0.3,0.7,0.6c0,0.4-0.3,0.7-0.6,0.7C83.1,13.6,82.8,13.3,82.8,13
						z"/>
				</g>
				<g>
					<path class="st1" d="M91.6,13.5c-0.4,0-0.7-0.3-0.7-0.7c0-0.4,0.3-0.7,0.7-0.7c0.4,0,0.7,0.3,0.7,0.7
						C92.3,13.2,92,13.5,91.6,13.5z"/>
				</g>
				<g>
					<path class="st1" d="M85.5,12.8c0-0.4,0.3-0.7,0.7-0.7c0.4,0,0.7,0.3,0.7,0.7c0,0.4-0.3,0.7-0.7,0.7
						C85.9,13.5,85.5,13.2,85.5,12.8z"/>
				</g>
				<g>
					<path class="st1" d="M88.3,12.8c0-0.4,0.3-0.7,0.7-0.7c0.4,0,0.7,0.3,0.7,0.7c0,0.4-0.3,0.7-0.7,0.7
						C88.6,13.4,88.3,13.2,88.3,12.8z"/>
				</g>
			</g>
		</g>
		<path class="st2" d="M92.6,50.1l6.5,0L99,77.7l-7.1,0l-9.2-16.1l0,16.1l-6.5,0l0.1-27.5l7.1,0l9.2,16.1L92.6,50.1z"/>
		<path class="st2" d="M73.6,56.4l-10.3,0l0,4.2l8.1,0l0,6.4l-8.1,0l0,4.4l10.2,0l0,6.4l-16.7,0l0.1-27.6l16.8,0L73.6,56.4z"/>
		<path class="st2" d="M54.3,50.1l0,6.3l-5.2,0L49,77.7l-6.5,0l0.1-21.3l-5.6,0l0-6.3L54.3,50.1z"/>
		<path class="st2" d="M119.3,50.1l0,6.3l-5.2,0L114,77.7l-6.5,0l0.1-21.3l-5.6,0l0-6.3L119.3,50.1z"/>
		<path class="st2" d="M135.8,77.7l-1.1-3.3l-9,0l-1.1,3.3h-7l9.7-27.7h6.3l9.1,27.7H135.8z M127.7,68.3l5.1,0l-2.5-8L127.7,68.3z"
			/>
		<g>
			<g>
				<g>
					<path class="st1" d="M53.7,120v2.1c0.2-0.3,0.5-0.4,0.9-0.4c0.2,0,0.4,0,0.6,0.1c0.2,0.1,0.3,0.2,0.5,0.3
						c0.1,0.1,0.2,0.3,0.3,0.5c0.1,0.2,0.1,0.4,0.1,0.6c0,0.2,0,0.4-0.1,0.6c-0.1,0.2-0.2,0.4-0.3,0.5c-0.1,0.1-0.3,0.2-0.5,0.3
						c-0.2,0.1-0.4,0.1-0.6,0.1c-0.4,0-0.7-0.1-0.9-0.4v0.3h-1V120H53.7z M55,123.3c0-0.1,0-0.2-0.1-0.3c0-0.1-0.1-0.2-0.1-0.2
						c-0.1-0.1-0.1-0.1-0.2-0.1c-0.1,0-0.2-0.1-0.3-0.1c-0.1,0-0.2,0-0.3,0.1c-0.1,0-0.1,0.1-0.2,0.1c-0.1,0.1-0.1,0.1-0.1,0.2
						c0,0.1-0.1,0.2-0.1,0.3c0,0.1,0,0.2,0.1,0.3c0,0.1,0.1,0.1,0.1,0.2c0.1,0.1,0.1,0.1,0.2,0.1c0.1,0,0.2,0.1,0.3,0.1
						c0.1,0,0.2,0,0.3-0.1c0.1,0,0.1-0.1,0.2-0.1c0.1-0.1,0.1-0.1,0.1-0.2C55,123.4,55,123.3,55,123.3z"/>
					<path class="st1" d="M58.1,124.3l-1.4-2.5h1.2l0.8,1.5l0.7-1.5h1.2l-2.3,4.3h-1.1L58.1,124.3z"/>
				</g>
			</g>
		</g>
		<path class="st2" d="M40.1,109.9c-1.9,0-3.7-0.4-5.5-1.1c-1.8-0.7-3.4-1.8-4.8-3.2c-1.4-1.4-2.4-3-3.1-4.8
			c-0.7-1.8-1.1-3.6-1.1-5.6c0-2,0.4-3.9,1.1-5.6c0.7-1.8,1.8-3.3,3.2-4.7c1.4-1.4,3-2.5,4.9-3.2c1.8-0.7,3.6-1.1,5.5-1.1
			c1.9,0,3.7,0.4,5.5,1.1c1.8,0.7,3.4,1.8,4.8,3.2l-4.7,4.7c-0.8-0.8-1.6-1.3-2.6-1.7c-1-0.4-2-0.6-3-0.6c-1,0-2,0.2-3,0.6
			c-1,0.4-1.8,1-2.6,1.7c-0.7,0.8-1.3,1.6-1.7,2.6c-0.4,1-0.6,2-0.6,3c0,1.1,0.2,2.1,0.6,3c0.4,0.9,1,1.8,1.7,2.6
			c0.8,0.8,1.6,1.3,2.6,1.7c1,0.4,1.9,0.6,3,0.6c1,0,2-0.2,3-0.6c1-0.4,1.9-1,2.6-1.7l4.7,4.8c-1.4,1.4-3,2.5-4.8,3.2
			C43.8,109.5,42,109.9,40.1,109.9z"/>
		<path class="st2" d="M58.1,109.1l-6.3,0V81.4l6.4,0L58.1,109.1z"/>
		<path class="st2" d="M106.8,81.5l6.4,0l-0.1,27.7l-6.9,0l-9-16.2l0,16.1l-6.4,0l0.1-27.6l6.9,0l9,16.1L106.8,81.5z"/>
		<path class="st2" d="M142.4,109.9c-0.9,0-1.8-0.1-2.7-0.4c-0.9-0.2-1.7-0.6-2.5-1.1c-1.4-0.9-2.5-2.1-3.2-3.5
			c-0.8-1.4-1.1-3-1.1-4.7l6.5,0c0,0.8,0.2,1.4,0.5,1.8c0.3,0.4,0.6,0.7,0.9,0.9c0.5,0.3,1,0.5,1.5,0.5c0.5,0,1.1-0.1,1.6-0.3
			c0.4-0.2,0.6-0.3,0.9-0.6c0.2-0.2,0.4-0.5,0.5-0.7c0.1-0.2,0.2-0.4,0.2-0.6c0-0.2,0-0.4,0-0.5c0-0.1,0-0.3,0-0.5
			c0-0.2-0.1-0.4-0.2-0.7c-0.1-0.2-0.3-0.5-0.5-0.7c-0.2-0.2-0.5-0.4-0.9-0.6c-0.3-0.1-0.6-0.2-0.9-0.3c-0.3-0.1-0.7-0.2-1-0.3
			c-0.6-0.2-1.3-0.4-2-0.7c-0.7-0.3-1.4-0.6-2.1-1c-0.9-0.6-1.7-1.3-2.3-2.1c-0.6-0.8-1.1-1.8-1.3-2.7c-0.3-1-0.4-2-0.3-3
			c0.1-1,0.4-2,0.9-3c0.5-0.9,1-1.6,1.7-2.3c0.7-0.6,1.5-1.1,2.3-1.5c0.8-0.4,1.8-0.6,2.7-0.7c1-0.1,2,0,3,0.3
			c1,0.2,1.9,0.6,2.6,1.1c0.8,0.5,1.5,1.1,2,1.8c0.6,0.7,1,1.5,1.3,2.4c0.3,0.9,0.5,1.8,0.5,2.7l-6.5,0c0-0.6-0.2-1-0.6-1.2
			c-0.4-0.2-0.7-0.4-1-0.5c-0.1,0-0.2,0-0.4-0.1c-0.2,0-0.4,0-0.7,0c-0.2,0-0.5,0.1-0.8,0.3c-0.3,0.1-0.5,0.4-0.6,0.7
			c-0.2,0.4-0.2,0.8-0.1,1.3c0.1,0.4,0.4,0.8,0.8,1.1c0.4,0.2,0.8,0.4,1.2,0.6c0.4,0.2,0.9,0.3,1.4,0.5c0.4,0.1,0.9,0.3,1.3,0.4
			c0.4,0.2,0.9,0.3,1.4,0.5c1.7,0.8,3,1.9,3.9,3.4c1,1.5,1.4,3.1,1.4,5c0,1.8-0.5,3.4-1.4,4.9c-1,1.5-2.3,2.6-4,3.4
			c-0.7,0.3-1.3,0.5-2,0.7C143.8,109.9,143.1,109.9,142.4,109.9z"/>
		<path class="st2" d="M132.3,87.9l-10.3,0l0,4.2l8.1,0l0,6.4l-8.1,0l0,4.4l10.2,0l0,6.4l-16.7,0l0.1-27.6l16.8,0L132.3,87.9z"/>
		
			<ellipse transform="matrix(0.7071 -0.7071 0.7071 0.7071 -45.5728 80.5364)" class="st2" cx="74.4" cy="95.3" rx="14.1" ry="14.1"/>
		<g>
			<g>
				<g>
					<path class="st0" d="M74.4,103.2c-0.1,0-0.2,0-0.3-0.1c-4.3-2.5-7.4-6.7-7.4-9.6c0-2.8,2-4.3,3.8-4.3c1.7,0,3.1,1.3,3.9,2.9
						c0.9-1.6,2.3-2.9,3.9-2.9c1.8,0,3.8,1.5,3.8,4.3c0,2.9-3.1,7.1-7.4,9.5C74.6,103.2,74.5,103.2,74.4,103.2z"/>
				</g>
			</g>
		</g>
	</g>
	<g>
		<path class="st1" d="M83.5,131.2c-0.1-0.1-0.1-0.1-0.2-0.1c0,0-0.1,0-0.1,0.1c0,0,0,0-0.1,0l0,0c-0.3,0.4-0.5,0.8-0.8,1.2
			c-0.1,0.1-0.2,0.2-0.3,0.3c-0.2,0.2-0.3,0.5-0.6,0.7c-0.2,0.2-0.3,0.3-0.5,0.3c-0.1,0-0.3,0-0.5-0.2l0,0c-0.1,0-0.3-0.4-0.3-0.6
			c0-0.1,0-0.1,0-0.1c0.5-0.4,1-0.9,1.3-1.4c0.2-0.3,0.3-0.6,0.3-0.9c0-0.1-0.1-0.2-0.1-0.3l0,0c-0.1-0.2-0.3-0.2-0.6-0.3
			c-0.2,0-0.4,0.1-0.6,0.3c-0.5,0.4-0.8,0.9-1,1.6c-0.1,0.3-0.1,0.6-0.1,0.9c-0.5,0.7-1.4,1.7-1.7,2.1c-0.5,0.5-1,1.1-1.6,1.1
			c0,0,0,0,0,0c-0.2,0-0.5-0.1-0.7-0.3c-0.4-0.4-0.5-1-0.6-1.6c0-0.4,0-0.8,0-1.2c0-0.2,0-0.3,0-0.5l0,0c1.2-1.6,2-2.9,2.8-4.5
			l0.1-0.2c0.2-0.5,0.4-1,0.6-1.5c0.2-0.6,0.4-1.2,0.5-1.7c0,0,0-0.1,0-0.1c0,0,0-0.1,0-0.2c0-0.3-0.2-0.8-0.5-0.9
			c-0.1-0.1-0.2-0.1-0.4-0.1c-0.2,0-0.3,0.1-0.5,0.1c-0.2,0.2-0.5,0.4-0.7,0.7c-0.2,0.2-0.3,0.5-0.5,0.8c0,0.1-0.1,0.1-0.1,0.2
			c-0.3,0.5-0.5,1-0.7,1.5c-0.5,1.2-0.8,2.4-1.1,3.7c-0.1,0.5-0.2,1-0.3,1.5c0,0.1,0,0.2-0.1,0.4c0,0,0,0.1,0,0.1c0,0,0,0,0,0
			c-0.5,0.7-1,1.3-1.2,1.7c-1.2,2.3-2,2.8-2.5,2.8c-0.9,0.1-1.1-1-1.2-1.6c-0.4-4,0.9-7.2,2-10c0.5-1.3,1.1-2.6,1.3-3.7l0,0l0-0.1
			c0-0.2-0.3-0.3-0.6-0.3c-0.5,0.1-0.9,1.2-1.2,2.1c0,0.1,0,0.1-0.1,0.2c-0.3-0.9-1.5-1.5-2.5-1.4c-1.5,0.2-2.8,1.3-3.7,2.2
			c-2.9,2.8-4.4,6.9-4,10.6c0.2,1.4,0.8,2.2,1.8,2.1c1.1-0.1,2.2-1,3.4-2.8c1.2-1.7,2.2-3.4,3.2-5.1c0,0.2-0.1,0.4-0.1,0.7
			c-0.4,1.9-0.8,3.6-0.5,5.6c0.1,0.6,0.2,1.2,0.5,1.7c0.3,0.5,0.8,0.7,1.4,0.7c0.1,0,0.2,0,0.3,0c0.8-0.1,1.7-1,2.7-2.7
			c0.2-0.3,0.4-0.6,0.7-1.1c0,0,0.1-0.1,0.1-0.1c0,0.1,0,0.2,0,0.3l0,0.2c0,0.6,0.2,1.1,0.5,1.5c0.3,0.4,0.6,0.7,1.2,0.8
			c0.1,0,0.2,0.1,0.4,0.1c0.5,0,1.1-0.3,1.4-0.6c0.1-0.1,0.2-0.2,0.3-0.3c0.3-0.3,0.6-0.6,0.8-0.9c0.1-0.1,0.5-0.6,0.9-1.1
			c0,0,0.1-0.1,0.1-0.1c0,0,0,0,0,0l0,0.2c0.2,0.5,0.6,0.8,1,0.8c0,0,0.1,0,0.1,0c0,0,0,0,0.1,0c0,0,0,0,0,0c1-0.1,1.9-1.5,2.3-2
			c0,0,0.1-0.1,0.1-0.1c0.2-0.3,0.5-0.7,0.5-1l0,0l0,0C83.6,131.3,83.6,131.2,83.5,131.2z M81.2,130.7
			C81.2,130.7,81.2,130.7,81.2,130.7c-0.1,0.5-0.4,0.9-0.8,1.3c0,0,0,0,0,0c0-0.1,0-0.2,0.1-0.2l0,0c0-0.1,0.1-0.3,0.2-0.4l0,0
			c0.1-0.2,0.3-0.4,0.5-0.6C81.1,130.7,81.2,130.7,81.2,130.7z M75.6,130.3c0,0-0.1-0.1-0.2,0c-0.1,0-0.2,0-0.2,0.1
			c0,0,0,0.1-0.1,0.1c0.4-2,1.2-3.7,1.7-5c0,0,0,0,0-0.1c0.8-1.6,1.2-1.8,1.2-1.8c0,0,0,0,0,0c0,0,0,0,0.1,0.1c0,0.1,0,0.2,0,0.3
			l0,0.1c0,0.2,0,0.4-0.1,0.6c0,0.2-0.1,0.4-0.1,0.6c0,0.1,0,0.2-0.1,0.2l-0.1,0.2c-0.2,0.4-0.3,0.9-0.5,1.3
			C76.8,128.3,76.2,129.4,75.6,130.3z M68.8,127.8c-0.2,0.3-0.3,0.6-0.5,0.9c-1.1,2-3.9,7.1-5.9,7.4c-0.1,0-0.3,0-0.4-0.1
			c-0.3-0.2-0.5-0.7-0.6-1.1c-0.5-4.2,1.9-9.2,5.5-11.7c0.4-0.2,1.1-0.5,1.8-0.5c0.3,0,0.5,0,0.7,0.1c0.4,0.2,0.6,0.5,0.6,1
			C70.4,124.9,69.5,126.5,68.8,127.8z"/>
		<path class="st1" d="M100.5,135.4c-0.1,0-0.2,0-0.3,0.1c-0.1,0.1-0.1,0.2,0,0.3c0.2,0.3,0,0.6-0.1,0.7c-0.2,0.3-0.7,0.4-1.1,0.3
			c-0.6-0.2-0.9-0.9-1.2-1.5c-0.3-0.6-0.4-1.3-0.5-2.2c-0.1-1.4,0-2.9,0.3-4.6v0c0.2-1.6,0.5-3.1,0.9-4.5c0.3-1.1,0.6-2.1,0.9-3.2
			c0.1-0.4,0.2-0.9,0.4-1.3c0.2-0.6,0.5-2.1-0.3-2.7c-0.8-0.6-2.1,0-2.7,0.6c-0.3,0.4-0.6,0.7-0.9,1.1c-0.1,0.2-0.3,0.4-0.4,0.5
			c-0.9,1.3-1.6,2.5-2.2,3.6c-0.7,1.3-1.4,2.6-1.8,3.7c0-0.5,0-1-0.2-1.4c-0.2-0.3-0.4-0.5-0.7-0.5c-0.6,0-1.4,0.5-1.7,0.9
			c-0.3,0.4-0.5,0.8-0.7,1.2c0-0.2,0.1-0.5,0.1-0.7c0.1-0.9,0.2-1.7,0.3-2.6c0.1-0.3,0.1-0.7,0.1-1c0-0.3,0.1-0.7,0.1-1
			c0-0.1,0-0.2,0-0.3c0.1-0.3,0.1-0.7-0.1-0.9c-0.1-0.1-0.2-0.1-0.4-0.1c-0.6,0.1-0.7,0.9-0.7,1.4c0,0.1,0,0.2,0,0.3
			c-0.1,0.7-0.2,1.4-0.3,2.1c0,0.3-0.1,0.6-0.1,0.8c-0.1,0.4-0.1,0.9-0.1,1.3c-0.2,1.5-0.4,3.1-0.6,4.6c-0.1,0.9-0.2,1.7-0.3,2.5
			c0,0.1,0,0.1,0,0.2c0,0.2-0.1,0.4,0.1,0.6c0.2,0.2,0.3,0.2,0.5,0.2c0.4-0.1,0.5-1,0.5-1.7c0,0,0-0.1,0-0.1
			c0.1-0.4,0.1-0.8,0.2-1.2c0.1-0.6,0.2-1.2,0.3-1.8c0.2-0.9,0.6-1.8,1.1-2.8c0.2-0.4,0.5-0.7,0.8-1c0.1-0.1,0.2-0.2,0.2-0.2
			c0.1,0,0.1,0,0.1,0.1l0,0l0,0c0.1,0.1,0.1,0.3,0.2,0.5c0,0.2,0,0.4,0,0.7c0,0.5-0.1,1-0.2,1.6c-0.1,0.5-0.2,1-0.3,1.5
			c-0.2,0.6-0.3,1.3-0.4,1.9c0,0.1,0,0.3,0.1,0.4c0.1,0.1,0.3,0.2,0.4,0.2c0.4,0,0.5-0.2,0.6-0.4c0.3-0.7,0.5-1.4,0.7-2.2l0-0.2
			c0.1-0.2,0.1-0.5,0.2-0.7c0.1-0.6,0.3-1.1,0.5-1.7c0.3-0.8,0.7-1.5,1.1-2.4c0.1-0.2,0.2-0.5,0.4-0.7c0.8-1.5,1.4-2.6,2.1-3.7
			c0.1-0.2,0.3-0.4,0.4-0.6c0.3-0.4,0.5-0.8,0.8-1.1c0.1-0.1,0.1-0.2,0.2-0.2c0.2-0.2,0.3-0.4,0.5-0.5c0.2-0.2,0.5-0.4,0.8-0.4
			c0,0,0,0,0,0c0.5,0,0.6,0.6,0.7,1c0,0.6-0.2,1.2-0.4,1.8l0,0c-0.4,1.5-0.8,3-1.1,4.5c-0.4,1.5-0.7,3-0.8,4.6
			c-0.2,1.3-0.3,3.1-0.1,4.7c0.2,1.8,0.9,2.9,1.8,3.5c0.3,0.2,0.7,0.3,1,0.3c0.2,0,0.4,0,0.6-0.1c0.5-0.2,1-0.6,1.1-1.2
			c0-0.2,0-0.5-0.1-0.8C100.7,135.5,100.6,135.4,100.5,135.4z"/>
		<path class="st1" d="M124.5,124.3c0-0.1,0-0.1-0.1-0.2l0,0c-0.1,0-0.1,0-0.2,0c-0.1,0-0.4,0.5-1.1,1.6c-0.3,0.5-0.6,1-0.9,1.5
			c-0.3,0.4-0.6,0.9-0.9,1.3c-0.3,0.5-0.5,0.7-0.6,0.9c-0.1-1.1-0.2-2-0.3-2.9c0-0.5-0.1-1-0.1-1.5c0-0.3,0-0.7-0.1-1.1
			c-0.1-0.3-0.2-0.4-0.5-0.3c-0.3,0.1-0.4,0.4-0.5,0.8c0,0.2-0.1,0.3-0.2,0.4c-0.2,0.3-0.6,0.7-0.8,0.7c0,0,0,0,0,0
			c-0.1,0-0.1-0.2-0.1-0.3c0-0.1,0-0.3,0-0.4c0-0.1,0-0.1,0-0.2c0-0.1-0.1-0.2-0.2-0.2c-0.1,0-0.1,0-0.2,0c-0.1,0-0.1,0-0.1,0.1
			c-0.1,0.1-0.5,0.8-0.9,1.5c0,0,0,0.1-0.1,0.1c-0.5,0.8-1,1.7-1.6,2.6c-0.2,0.4-0.5,0.7-0.7,1c-0.2,0.2-0.3,0.5-0.4,0.7
			c-0.2,0.3-0.4,0.6-0.6,0.9l0,0c-0.2,0.3-0.5,0.6-0.8,0.7c-0.1,0-0.1,0-0.2,0c-0.3,0-0.7-0.4-0.8-0.7c-0.1-0.2-0.2-0.4-0.3-0.7
			c-0.1-0.3-0.1-0.7-0.1-1l-0.1-1.2l0,0c0-0.2,0-0.4,0-0.6l1.2-2.4c0.5-1.2,0.9-2.4,1.2-3.6c0-0.1,0.1-0.3,0.1-0.4
			c0.1-0.5,0.3-1,0.4-1.5l0-0.1c0.1-0.6,0.3-1.3,0.3-2c0-0.2,0-0.4-0.1-0.6c-0.1-0.6-0.4-0.9-0.8-1.1c-0.3-0.2-0.6-0.3-1-0.2
			c-0.3,0.1-0.5,0.2-0.7,0.5c-0.4,0.6-0.7,1.3-0.9,1.8c-0.2,0.6-0.3,1.2-0.4,1.7l-0.1,0.3c-0.2,1.5-0.4,3-0.4,4.4
			c0,0.9,0,1.8,0.1,2.8l0,0.5c-0.6,1.1-1.2,2.2-2,3.1c-0.2,0.2-0.6,0.4-0.8,0.5c-0.3,0.1-0.6-0.3-0.7-0.6c-0.2-0.4-0.4-0.9-0.4-1
			c-0.1-0.5-0.2-1-0.3-1.6l-0.1-0.4c0-0.2-0.1-0.4-0.1-0.6c0.1-0.2,0.2-0.5,0.3-0.7c0.1-0.1,0.2-0.3,0.2-0.4
			c0.2-0.3,0.4-0.6,0.5-0.9c0.2-0.4,0.5-0.8,0.7-1.2c0.3-0.6,0.7-1.3,0.9-2c0.2-0.7,0.4-1.2,0.5-1.7c0-0.3,0-0.6-0.1-0.9
			c-0.1-0.3-0.2-0.5-0.4-0.7c-0.2-0.2-0.5-0.3-0.8-0.3c-0.7,0.2-1.3,1.1-1.6,1.6l-0.1,0.1c-0.7,1.2-1.1,2.6-1.2,4.6
			c-0.1,0.7-0.1,1.5-0.1,2.2l0.1,0.6l-0.6,1.2c-0.1,0.3-0.3,0.5-0.4,0.8l0,0c0,0,0,0,0,0c-0.2,0.3-0.4,0.6-0.7,0.9
			c-0.1,0.1-0.2,0.2-0.3,0.3c-0.2,0.2-0.4,0.4-0.6,0.6c-0.2,0.2-0.3,0.3-0.5,0.3c-0.1,0-0.3-0.1-0.4-0.2l0,0c-0.1,0-0.3-0.4-0.3-0.6
			c0-0.1,0-0.1,0-0.1c0.5-0.3,1-0.9,1.4-1.3c0.2-0.3,0.3-0.6,0.3-0.9c0-0.1,0-0.2-0.1-0.3l0,0c-0.1-0.2-0.3-0.3-0.6-0.3
			c-0.2,0-0.4,0.1-0.6,0.2c-0.5,0.4-0.8,0.9-1.1,1.6c-0.1,0.4-0.1,0.8-0.1,1.2c0,0.1,0,0.3,0.1,0.5l0,0.2c0.2,0.5,0.5,0.8,1,0.9
			c0,0,0.1,0,0.1,0c0,0,0,0,0.1,0c0,0,0,0,0,0c1-0.1,2-1.4,2.3-2c0,0,0.1-0.1,0.1-0.1c0.1-0.1,0.2-0.3,0.3-0.5c0,0,0.1,0,0.1-0.1
			c0.1-0.2,0.2-0.3,0.3-0.5c0.2-0.3,0.3-0.5,0.4-0.8c0,0.2,0.1,0.5,0.1,0.7c0,0.1,0.1,0.3,0.1,0.4c0,0.1,0.1,0.2,0.1,0.3l0,0
			c0.2,0.6,0.3,1.3,0.8,1.7c0.4,0.4,0.8,0.6,1.3,0.5c0.2,0,0.3-0.1,0.5-0.2c0.5-0.3,0.9-0.8,1.3-1.3c0.4-0.5,0.8-1.1,1.1-1.7
			c0,0.4,0.1,0.8,0.1,1.1c0,0.3,0.1,0.5,0.1,0.8c0.2,0.8,0.5,1.4,1,1.7c0.2,0.1,0.5,0.2,0.8,0.2c0.1,0,0.2,0,0.3,0
			c0.2,0,0.4-0.1,0.6-0.2c0.5-0.4,0.8-0.9,1.1-1.4c0.4-0.7,0.8-1.3,1.3-2c0.4-0.5,0.7-1.1,1.1-1.6c0,0,0,0,0-0.1h0l0,0
			c0.2-0.2,0.5-0.8,0.8-1.3c0.1-0.1,0.1-0.2,0.2-0.3c0,0,0,0,0,0.1c0.2,0.2,0.4,0.4,0.9,0.3l0.1,0c0.3-0.1,0.7-0.4,1-0.8
			c0,0.9,0.1,1.8,0.2,2.7c0.1,0.8,0.2,1.7,0.2,2.6c-0.3,0.4-0.6,0.8-1,1.2c-1.3,1.4-2.7,2.9-2.2,4.7c0.2,0.7,0.8,1.4,1.5,1.4
			c0.1,0,0.2,0,0.3,0c1.5-0.4,2-2.9,2-3c0.2-0.9,0.2-1.6,0.3-2.5c0-0.3,0-0.7,0-1.1c0-0.2-0.1-0.8,0.1-1l1.5-2.1
			c0.6-0.8,2-3.2,2.2-3.8C124.6,124.3,124.5,124.3,124.5,124.3z M118.8,132.7c0.1-0.1,0.1-0.2,0.2-0.2c0.3-0.4,0.6-0.8,1-1.1
			c0,1.9-0.2,3.6-1.2,5.4c-0.1,0.2-0.3,0.3-0.5,0.4c-0.5,0.1-0.9-0.5-1-0.9C116.8,134.9,118.1,133.5,118.8,132.7z M112.9,116.5
			c0.1,0,0.1,0,0.2,0.1l0,0c0.2,0.1,0.4,0.6,0.5,0.8c0.1,0.5,0,1.1-0.1,1.6c0,0.1,0,0.3-0.1,0.4c-0.1,0.2-0.1,0.5-0.1,0.7
			c-0.1,0.4-0.2,0.8-0.3,1.2c-0.5,1.9-1.2,3.8-2.2,5.6l0-1.2c0-1.4,0.1-2.7,0.3-4.1c0.2-1.2,0.4-2.6,0.8-3.9c0.2-0.5,0.5-1,0.9-1.1
			C112.9,116.5,112.9,116.5,112.9,116.5z M108.3,119.8c0,0.4-0.1,1-0.3,1.6c-0.4,1.2-0.9,2.3-1.8,3.7l-0.5,0.9c0-0.1,0-0.2,0-0.3
			c0-0.1,0-0.2,0-0.2c0-0.7,0.1-1.3,0.2-1.8c0.2-1.5,0.6-2.7,1.3-3.8c0-0.1,0.1-0.1,0.1-0.2c0.1-0.2,0.3-0.4,0.5-0.5l0.1,0
			c0,0,0.1,0,0.1,0c0.3,0,0.4,0.3,0.4,0.4c0,0,0,0,0,0.1C108.2,119.8,108.2,119.8,108.3,119.8z M101,130C101,130,101,130,101,130
			c0-0.1,0-0.2,0.1-0.2l0,0c0-0.1,0.1-0.3,0.2-0.4l0,0c0.1-0.2,0.3-0.4,0.5-0.6c0,0,0.1-0.1,0.1-0.1c0,0,0,0,0,0
			C101.8,129.3,101.5,129.6,101,130z"/>
	</g>
</g>
</svg>
