<?xml version="1.0" encoding="utf-8"?>
<!-- Generator: Adobe Illustrator 24.0.0, SVG Export Plug-In . SVG Version: 6.00 Build 0)  -->
<svg version="1.1" id="Capa_1" xmlns="http://www.w3.org/2000/svg" xmlns:xlink="http://www.w3.org/1999/xlink" x="0px" y="0px"
	 viewBox="0 0 119.7 90.42" style="enable-background:new 0 0 119.7 90.42;" xml:space="preserve">
<style type="text/css">
	.st0{fill:none;stroke:#F6A2A7;stroke-width:3.5853;stroke-linecap:round;stroke-linejoin:round;stroke-miterlimit:10;}
</style>
<g>
	<path class="st0" d="M53.1,21.34c-26.39,1.99-49.8,3.75-49.8,3.75"/>
	<path class="st0" d="M101.06,39.9c5.51-2.31,14.71-14.63,15.33-23.29l0.02,0c0-0.01-0.01-0.03-0.01-0.04
		c0-0.01,0.01-0.03,0.01-0.04c0,0-0.01,0-0.02,0c-0.05-3.36-2.69-6.07-6.13-6.07s-5.43,2.9-5.92,4.77c-0.34,1.32-1.34,2.33-2.7,2.44
		c-5.42,0.41-9.42,0.72-16.44,1.25"/>
	<path class="st0" d="M116.4,16.53v42.25c0,2.16-0.63,4.27-1.8,6.08l-14.44,22.26"/>
	<path class="st0" d="M100.17,46.27c0,0,0-4.4-0.02-4.4c-0.05-3.36-2.69-6.07-6.13-6.07s-5.43,2.9-5.92,4.77
		c-0.35,1.33-1.52,2.65-4.09,2.14C82.72,42.46,3.29,25.09,3.29,25.09v36.38c0,2.63,1.83,4.9,4.4,5.46l92.48,20.19V46.24"/>
	<line class="st0" x1="3.29" y1="45.53" x2="100.17" y2="66.68"/>
	<g>
		<path class="st0" d="M70.26,19.93c-0.07,4.72-3.92,8.51-8.65,8.51c-4.78,0-8.65-3.87-8.65-8.65c0-4.78,3.87-8.65,8.65-8.65
			c1.19,0,2.21,0.19,3.25,0.63"/>
		<path class="st0" d="M80.95,16.47c3.8,0.91,6.62,4.33,6.62,8.41c0,4.78-3.87,8.65-8.65,8.65c-4.78,0-8.65-3.87-8.65-8.65
			c0-1.66,0.47-3.21,1.28-4.53"/>
		
			<ellipse transform="matrix(0.2298 -0.9732 0.9732 0.2298 45.0602 80.8266)" class="st0" cx="73.59" cy="11.95" rx="8.65" ry="8.65"/>
		<path class="st0" d="M70.26,13.14c0-2.15,1.09-4.04,2.74-5.16"/>
	</g>
</g>
<g>
</g>
<g>
</g>
<g>
</g>
<g>
</g>
<g>
</g>
<g>
</g>
<g>
</g>
<g>
</g>
<g>
</g>
<g>
</g>
<g>
</g>
<g>
</g>
<g>
</g>
<g>
</g>
<g>
</g>
</svg>
